<svg id="Calque_1" data-name="Calque 1" xmlns="http://www.w3.org/2000/svg" viewBox="0 0 207.29 209.77"><defs><style>.cls-1{fill:#1d1d1b;}.cls-2{opacity:0.66;}.cls-3{fill:#f4f2f2;}</style></defs><title>23</title><ellipse class="cls-1" cx="103.64" cy="104.89" rx="103.64" ry="104.89"/><g class="cls-2"><polygon class="cls-3" points="49.64 153.22 43.56 138.52 42.21 138.52 49.44 156.07 49.83 156.07 57.03 138.52 55.69 138.52 49.64 153.22"/><rect class="cls-3" x="59.06" y="138.52" width="1.33" height="17.38"/><polygon class="cls-3" points="78.45 153.71 65.43 138.52 64.3 138.52 64.3 155.9 65.63 155.9 65.63 140.71 78.68 155.9 79.78 155.9 79.78 138.52 78.45 138.52 78.45 153.71"/><path class="cls-3" d="M5659.48,8250.08h3.63v4.69a10,10,0,0,1-4.71,1.07,7.78,7.78,0,0,1-5.81-2.18,8.06,8.06,0,0,1,0-11,7.3,7.3,0,0,1,5.42-2.19,12.17,12.17,0,0,1,6.08,1.75v-1.52a14.07,14.07,0,0,0-5.89-1.48,9.12,9.12,0,0,0-6.6,2.53,9,9,0,0,0,0,12.73,9.25,9.25,0,0,0,6.67,2.56,13.88,13.88,0,0,0,6.1-1.47V8249h-5v1.12Z" transform="translate(-5566.01 -8100.96)"/><polygon class="cls-3" points="99.95 139.64 106.39 139.64 106.39 155.9 107.73 155.9 107.73 139.64 114.17 139.64 114.17 138.52 99.95 138.52 99.95 139.64"/><path class="cls-3" d="M5689.1,8248.2q3.27-1.21,3.27-4.23a4,4,0,0,0-1.46-3.28,6.47,6.47,0,0,0-4.23-1.21h-4.4v17.38h1.33v-8.33h2.32a4.22,4.22,0,0,1,2.45.59,11.67,11.67,0,0,1,2.33,3l3,4.76h1.57l-3.88-6A7.79,7.79,0,0,0,5689.1,8248.2Zm-2.64-.79h-2.85v-6.8h2.8a5.45,5.45,0,0,1,3.36.89,3,3,0,0,1,1.17,2.5,3,3,0,0,1-1.15,2.52A5.36,5.36,0,0,1,5686.46,8247.41Z" transform="translate(-5566.01 -8100.96)"/><path class="cls-3" d="M5704.69,8239.26a8.8,8.8,0,0,0-6.43,2.59,8.89,8.89,0,0,0,0,12.64,9.29,9.29,0,0,0,12.88,0,8.86,8.86,0,0,0,0-12.64A8.86,8.86,0,0,0,5704.69,8239.26Zm5.46,14.36a7.34,7.34,0,0,1-5.41,2.22,7.67,7.67,0,1,1,0-15.34,7.33,7.33,0,0,1,5.41,2.22A7.84,7.84,0,0,1,5710.15,8253.62Z" transform="translate(-5566.01 -8100.96)"/><rect class="cls-3" x="151.02" y="138.52" width="1.33" height="17.38"/><path class="cls-3" d="M5728.93,8248.43a24.34,24.34,0,0,0-2.85-1.25,5.91,5.91,0,0,1-2.57-1.55,2.91,2.91,0,0,1-.62-1.82,3.07,3.07,0,0,1,1-2.36,3.69,3.69,0,0,1,2.59-1,7.89,7.89,0,0,1,3.85,1.33v-1.48a8.09,8.09,0,0,0-4-1.09,4.92,4.92,0,0,0-3.49,1.35,4.28,4.28,0,0,0-1.45,3.26,3.94,3.94,0,0,0,.6,2.26,4.21,4.21,0,0,0,1.45,1.35,25.92,25.92,0,0,0,2.85,1.25,5.94,5.94,0,0,1,2.64,1.66,3.3,3.3,0,0,1,.65,2,3.26,3.26,0,0,1-1,2.46,3.59,3.59,0,0,1-2.58,1,7.72,7.72,0,0,1-4.33-1.85v1.58a7.91,7.91,0,0,0,4.4,1.52,4.94,4.94,0,0,0,3.54-1.38,4.5,4.5,0,0,0,1.45-3.38A4.17,4.17,0,0,0,5728.93,8248.43Z" transform="translate(-5566.01 -8100.96)"/><path class="cls-3" d="M5665.16,8211.42H5644.5a35.5,35.5,0,0,0,16.5,9.43h4.16v-9.43Z" transform="translate(-5566.01 -8100.96)"/><path class="cls-3" d="M5658,8190.4a52.3,52.3,0,0,0,4.23-6.44,21.92,21.92,0,0,0,2.85-10.63,18.83,18.83,0,0,0-6.12-14.29,20.44,20.44,0,0,0-7.13-4.43,35.92,35.92,0,0,0-9.29,7.85,14.7,14.7,0,0,1,1.66-.1,11,11,0,0,1,8,3.14,10.45,10.45,0,0,1,3.23,7.79,14.53,14.53,0,0,1-2.43,7.28,55.07,55.07,0,0,1-3.47,5.12q-2.27,3.06-5.64,7.24l-6.58,8.06a36.15,36.15,0,0,0,5.25,8.27l8.39-10Q5655.17,8194.12,5658,8190.4Z" transform="translate(-5566.01 -8100.96)"/><path class="cls-3" d="M5678.05,8171.35h9.87q1.06-4.9,3.23-7a8.76,8.76,0,0,1,5.59-2,36,36,0,0,0-8.49-7.34,14.94,14.94,0,0,0-3.9,2.56Q5679.58,8162,5678.05,8171.35Z" transform="translate(-5566.01 -8100.96)"/><path class="cls-3" d="M5685.92,8202.86h-9.57q0.64,6.55,3,10.25a18.9,18.9,0,0,0,5.3,5.46,35.69,35.69,0,0,0,9.14-6.19,10.13,10.13,0,0,1-4.17-2.13A11.81,11.81,0,0,1,5685.92,8202.86Z" transform="translate(-5566.01 -8100.96)"/><path class="cls-3" d="M5695.19,8181.42V8190c3.86,0,6.71.55,8.55,1.64a9.93,9.93,0,0,1,1,.69,36.25,36.25,0,0,0,0-13.11,8.56,8.56,0,0,1-1,.81Q5701.48,8181.42,5695.19,8181.42Z" transform="translate(-5566.01 -8100.96)"/></g></svg>