<svg id="Calque_1" data-name="Calque 1" xmlns="http://www.w3.org/2000/svg" viewBox="0 0 214.25 214.25"><defs><style>.cls-1{fill:#542c8e;}.cls-2{opacity:0.66;}.cls-3{fill:#f4f2f2;}</style></defs><title>fiducee</title><circle class="cls-1" cx="107.13" cy="107.13" r="107.13"/><g class="cls-2"><path class="cls-3" d="M5659.6,6953.25c2.59-.54,6.59-2.52,8.87-3.7l2.36-1.22,0.53,0.85a0.06,0.06,0,0,0,.05,0,0.1,0.1,0,0,0,.07,0l5.87-7.19a0.1,0.1,0,0,0,0-.1,0.09,0.09,0,0,0-.1,0l-9.46,1.56a0.1,0.1,0,0,0-.08,0,0.09,0.09,0,0,0,0,.08l0.58,0.9s-5,2.43-7.8,3.77-7.52,3.24-7.52,3.24,2,2.79,6.61,1.82" transform="translate(-5560.29 -6899.77)"/><path class="cls-3" d="M5655.59,6970.13c1.87,1.55,11.37,2.52,15.21,3.25s10.93,2.19,10.93,2.19-0.27-3.86-3.32-5.56c-2.6-1.45-12.22-2.53-16.19-3.31s-9.91-2.16-9.91-2.16a10.1,10.1,0,0,0,3.28,5.59" transform="translate(-5560.29 -6899.77)"/><path class="cls-3" d="M5661.17,6979.84c1.78,1.28,4.73,1.34,8.47,2.06s8.15,1.5,8.15,1.5a7.17,7.17,0,0,0-3.39-5.61c-2.1-1.19-5-1.32-9-2.09s-7.59-1.51-7.59-1.51a8.55,8.55,0,0,0,3.4,5.65" transform="translate(-5560.29 -6899.77)"/><path class="cls-3" d="M5682.56,6962.21c-3.14-1.82-19.62-3.89-25.4-4.93s-10-2.14-10-2.14a8.38,8.38,0,0,0,3.17,5.43c2.34,1.89,13.15,3.08,18.78,4,5.86,1,16.61,3.09,16.61,3.09a6.09,6.09,0,0,0-3.19-5.46" transform="translate(-5560.29 -6899.77)"/><path class="cls-3" d="M5669.67,6990.49c2.32,0.31,4.09.56,4.09,0.56a7.32,7.32,0,0,0-3.9-5.46,8.48,8.48,0,0,0-2.3-.68l-0.56-.09c-2.54-.38-3.84-0.65-3.84-0.65a8.74,8.74,0,0,0,3.91,5.51,6.76,6.76,0,0,0,2.55.8h0.06Z" transform="translate(-5560.29 -6899.77)"/><path class="cls-3" d="M5584.46,7005.42h12c-0.22,2.11-.29,2.18-0.5,2.23s-0.24-.12-0.29-0.43-0.48-.94-4.27-0.94h-2.35a0.41,0.41,0,0,0-.48.43v5.2h2.78c2.47,0,3.21-.1,3.21-0.82v-0.94h0.65v4.05h-0.65v-0.84c0-.65-0.24-0.67-3-0.67h-3v3.84c0,2.47,0,3.38.67,3.38h1.37v0.72h-5.56v-0.72h1.13a0.33,0.33,0,0,0,.36-0.38v-10c0-2.47,0-3.38-.67-3.38h-1.41v-0.72Z" transform="translate(-5560.29 -6899.77)"/><path class="cls-3" d="M5614.43,7016.54c0,2.47,0,3.38.67,3.38h1.37v0.72h-5.56v-0.72H5612a0.33,0.33,0,0,0,.36-0.38v-10c0-2.47,0-3.38-.67-3.38h-1.41v-0.72h5.56v0.72h-1.08a0.33,0.33,0,0,0-.36.38v10Z" transform="translate(-5560.29 -6899.77)"/><path class="cls-3" d="M5630.18,7005.42h7c6.76,0,7.89,5.13,7.89,7.31a7.56,7.56,0,0,1-7.86,7.91h-6.47v-0.72h1.13a0.33,0.33,0,0,0,.36-0.38v-10c0-2.47,0-3.38-.67-3.38h-1.41v-0.72Zm4.12,11.39c0,3,.26,3,1,3h1.92c4.24,0,5.73-3.38,5.73-6.09,0-5.28-3.29-7.41-6.76-7.41-1.58,0-1.87,0-1.87.43v10.09Z" transform="translate(-5560.29 -6899.77)"/><path class="cls-3" d="M5658.63,7005.42h5.56v0.72h-1.08a0.33,0.33,0,0,0-.36.38v9.09c0,3.53,2.33,4.51,4.08,4.51,5,0,5-3.81,5-5.71v-5.75c0-1.1,0-2.52-.77-2.52h-1.27v-0.72h4.39v0.72h-0.89a0.47,0.47,0,0,0-.55.48v8.54c0,3.69-2.35,5.95-6.07,5.95-5.73,0-6-3.74-6-6.26v-5.32c0-2.47,0-3.38-.67-3.38h-1.41v-0.72Z" transform="translate(-5560.29 -6899.77)"/><path class="cls-3" d="M5701.79,7007.79c-0.22,0-.24-0.1-0.29-0.46-0.12-.86-2.11-1.51-3.55-1.51-4.41,0-7,3.36-7,7.53a6.53,6.53,0,0,0,6.33,6.88c2.16,0,4.53-1,4.7-2.33,0-.19,0-0.43.31-0.43a0.26,0.26,0,0,1,.24.31c0,0.22,0,.58-0.14,2.09a13.05,13.05,0,0,1-5.52,1.22c-4.77,0-8.1-2.49-8.1-7.48,0-5.16,4.29-8.66,9.28-8.66a11.31,11.31,0,0,1,4.13.81c-0.17,1.94-.19,2-0.43,2" transform="translate(-5560.29 -6899.77)"/><path class="cls-3" d="M5716,7009.52c0-2.47,0-3.38-.67-3.38h-1.41v-0.72h12c-0.22,2.11-.29,2.18-0.5,2.23s-0.24-.12-0.29-0.43-0.48-.94-4.27-0.94h-2.35a0.41,0.41,0,0,0-.48.43v5.2h2.78c2.47,0,3.21-.1,3.21-0.82v-0.94h0.65v4.05h-0.65v-0.84c0-.65-0.24-0.67-3-0.67h-3v4.1c0,3,.26,3,1,3h1.61c4.08,0,5-.6,5.42-1.27a0.36,0.36,0,0,1,.29-0.26,0.27,0.27,0,0,1,.19.26,20.26,20.26,0,0,1-.6,2.13h-11.41v-0.72h1.13a0.33,0.33,0,0,0,.36-0.38v-10Zm3.91-6a12.69,12.69,0,0,1,3.17-2.37,1.63,1.63,0,0,1,.81.74,27.62,27.62,0,0,0-3.55,2.11Z" transform="translate(-5560.29 -6899.77)"/><path class="cls-3" d="M5739.84,7009.52c0-2.47,0-3.38-.67-3.38h-1.41v-0.72h12c-0.22,2.11-.29,2.18-0.5,2.23s-0.24-.12-0.29-0.43-0.48-.94-4.27-0.94h-2.35a0.41,0.41,0,0,0-.48.43v5.2h2.78c2.47,0,3.21-.1,3.21-0.82v-0.94h0.65v4.05h-0.65v-0.84c0-.65-0.24-0.67-3-0.67h-3v4.1c0,3,.26,3,1,3h1.61c4.08,0,5-.6,5.42-1.27a0.36,0.36,0,0,1,.29-0.26,0.27,0.27,0,0,1,.19.26,20.08,20.08,0,0,1-.6,2.13h-11.41v-0.72h1.13a0.33,0.33,0,0,0,.36-0.38v-10Z" transform="translate(-5560.29 -6899.77)"/><path class="cls-3" d="M5614.44,7038a0.79,0.79,0,0,0,.11.35,0.21,0.21,0,0,1-.15.15,6.77,6.77,0,0,1-2.41.49,2.81,2.81,0,0,1-2.95-3.05c0-2.13,1.78-3.35,3.76-3.35a3.81,3.81,0,0,1,1.71.36c-0.13.74-.14,0.79-0.22,0.79s-0.11,0-.11-0.17-0.54-.64-1.5-0.64a2.67,2.67,0,0,0-2.78,2.91,2.52,2.52,0,0,0,2.48,2.8,2.67,2.67,0,0,0,1.24-.28v-0.65c0-1.16,0-1.42-.25-1.42h-0.68V7036H5615v0.29h-0.42c-0.1,0-.17,0-0.17.12V7038Z" transform="translate(-5560.29 -6899.77)"/><path class="cls-3" d="M5619.9,7034.41c0-1,0-1.34-.27-1.34h-0.56v-0.29h4.76c-0.09.84-.11,0.86-0.2,0.88s-0.1,0-.11-0.17-0.19-.37-1.69-0.37h-0.93a0.16,0.16,0,0,0-.19.17v2.06h1.1c1,0,1.27,0,1.27-.32v-0.37h0.26v1.61h-0.26v-0.33c0-.26-0.1-0.27-1.18-0.27h-1.2v1.63c0,1.18.1,1.18,0.39,1.18h0.64c1.62,0,2-.24,2.15-0.5a0.14,0.14,0,0,1,.11-0.1,0.1,0.1,0,0,1,.08.1,7.94,7.94,0,0,1-.24.85h-4.53v-0.29h0.45a0.13,0.13,0,0,0,.14-0.15v-4Z" transform="translate(-5560.29 -6899.77)"/><path class="cls-3" d="M5628.87,7034a1.51,1.51,0,0,0,1.31,1.25c1.22,0.45,1.8.84,1.8,1.85a2,2,0,0,1-2.29,1.86,4.4,4.4,0,0,1-1.48-.27c-0.1-.59-0.14-0.79-0.14-0.87a0.1,0.1,0,0,1,.11-0.11,0.18,0.18,0,0,1,.14.18,1.58,1.58,0,0,0,1.48.73,1.35,1.35,0,0,0,1.54-1.24c0-.73-0.55-1.05-1.49-1.4a1.94,1.94,0,0,1-1.59-1.68,2,2,0,0,1,2.16-1.74,2.55,2.55,0,0,1,1.07.18c0,0.23,0,.47,0,0.69a0.11,0.11,0,0,1-.1.12c-0.1,0-.1-0.08-0.11-0.14a1.2,1.2,0,0,0-1.14-.51,1.18,1.18,0,0,0-1.29,1.09" transform="translate(-5560.29 -6899.77)"/><path class="cls-3" d="M5638.9,7037.2c0,1,0,1.34.27,1.34h0.73v0.29h-2.66v-0.29h0.71a0.13,0.13,0,0,0,.14-0.15v-5.26h-0.24c-1.11,0-1.65.2-1.75,0.49a0.16,0.16,0,0,1-.13.13,0.09,0.09,0,0,1-.1-0.1,8.57,8.57,0,0,1,.27-0.86h4.72a8.57,8.57,0,0,1,.27.86,0.09,0.09,0,0,1-.1.1,0.16,0.16,0,0,1-.13-0.13c-0.1-.29-0.64-0.49-1.75-0.49h-0.24v4.07Z" transform="translate(-5560.29 -6899.77)"/><path class="cls-3" d="M5646.72,7037.2c0,1,0,1.34.27,1.34h0.54v0.29h-2.21v-0.29h0.45a0.13,0.13,0,0,0,.14-0.15v-4c0-1,0-1.34-.27-1.34h-0.56v-0.29h2.21v0.29h-0.43a0.13,0.13,0,0,0-.14.15v4Z" transform="translate(-5560.29 -6899.77)"/><path class="cls-3" d="M5651.66,7035.9a3.15,3.15,0,0,1,3.17-3.29,2.83,2.83,0,0,1,3,3.11,3.15,3.15,0,0,1-3.17,3.29,2.83,2.83,0,0,1-3-3.11m0.81-.27c0,2.15,1.27,3.06,2.4,3.06,1.28,0,2.15-1,2.15-2.71,0-2.15-1.27-3.06-2.4-3.06-1.28,0-2.15,1-2.15,2.71" transform="translate(-5560.29 -6899.77)"/><path class="cls-3" d="M5667.17,7037.49h0v-3.42c0-.44,0-1-0.31-1h-0.5v-0.29h1.74v0.29h-0.35a0.19,0.19,0,0,0-.22.19v5.49c0,0.09,0,.15-0.08.15a0.24,0.24,0,0,1-.13-0.1l-0.11-.13-4.12-5h0v3.83c0,0.44,0,1,.3,1h0.5v0.29h-1.74v-0.29h0.35a0.19,0.19,0,0,0,.22-0.19v-4.18c0-.77-0.09-1.09-0.53-1.09h-0.29v-0.29h1.38Z" transform="translate(-5560.29 -6899.77)"/><path class="cls-3" d="M5678.11,7032.79h2.66a1.7,1.7,0,0,1,1.89,1.64,1.87,1.87,0,0,1-2.08,1.66,2.43,2.43,0,0,1-.84-0.12v1.24c0,1,0,1.34.27,1.34h0.54v0.28h-2.21v-0.28h0.45a0.13,0.13,0,0,0,.14-0.15v-4c0-1,0-1.34-.27-1.34h-0.56v-0.29Zm1.63,2.89a2,2,0,0,0,.71.12,1.25,1.25,0,0,0,1.4-1.25c0-.48-0.18-1.42-1.75-1.42-0.28,0-.38,0-0.36.15v2.4Z" transform="translate(-5560.29 -6899.77)"/><path class="cls-3" d="M5687.56,7034.41c0-1,0-1.34-.27-1.34h-0.56v-0.29h2.66a1.71,1.71,0,0,1,1.91,1.63,1.59,1.59,0,0,1-1.48,1.53c1.57,2.27,1.89,2.59,2.17,2.59h0.24v0.29h-1.09c-0.22,0-.32,0-2.06-2.74h-0.7v1.11c0,1,0,1.34.26,1.34h0.54v0.29H5687v-0.29h0.45a0.13,0.13,0,0,0,.14-0.15v-4Zm1.28,1.39c0.82,0,1.65-.29,1.65-1.23a1.4,1.4,0,0,0-1.43-1.44h-0.48c-0.09,0-.22,0-0.22.13v2.54h0.47Z" transform="translate(-5560.29 -6899.77)"/><path class="cls-3" d="M5697.5,7037.2c0,1,0,1.34.27,1.34h0.54v0.29h-2.2v-0.29h0.45a0.13,0.13,0,0,0,.14-0.15v-4c0-1,0-1.34-.27-1.34h-0.56v-0.29h2.21v0.29h-0.43a0.13,0.13,0,0,0-.14.15v4Z" transform="translate(-5560.29 -6899.77)"/><path class="cls-3" d="M5708.08,7033.07h-0.42c-0.06,0-.08,0-0.11.1l-2.17,5.5a0.41,0.41,0,0,1-.21.33c-0.07,0-.09-0.08-0.16-0.25l-2-4.88c-0.32-.77-0.38-0.81-0.69-0.81h-0.23v-0.29h2.05v0.29h-0.51c-0.06,0-.1,0-0.1.06s0.67,1.56,1.88,4.52a25.83,25.83,0,0,0,1.65-4.41c0-.13-0.08-0.16-0.24-0.16h-0.54v-0.29h1.81v0.29Z" transform="translate(-5560.29 -6899.77)"/><path class="cls-3" d="M5712.64,7034.41c0-1,0-1.34-.27-1.34h-0.56v-0.29h4.76c-0.09.84-.11,0.86-0.2,0.88s-0.1,0-.11-0.17-0.19-.37-1.69-0.37h-0.93a0.16,0.16,0,0,0-.19.17v2.06h1.1c1,0,1.27,0,1.27-.32v-0.37h0.26v1.61h-0.26v-0.33c0-.26-0.1-0.27-1.18-0.27h-1.2v1.63c0,1.18.1,1.18,0.39,1.18h0.64c1.62,0,2-.24,2.15-0.5a0.14,0.14,0,0,1,.11-0.1,0.1,0.1,0,0,1,.08.1,7.81,7.81,0,0,1-.24.85H5712v-0.29h0.45a0.13,0.13,0,0,0,.14-0.15v-4Zm1.55-2.4a5,5,0,0,1,1.26-.94,0.64,0.64,0,0,1,.32.29,10.9,10.9,0,0,0-1.41.84Z" transform="translate(-5560.29 -6899.77)"/><path class="cls-3" d="M5721.6,7034.41c0-1,0-1.34-.27-1.34h-0.56v-0.29h4.76c-0.08.84-.11,0.86-0.2,0.88s-0.1,0-.11-0.17-0.19-.37-1.69-0.37h-0.93a0.16,0.16,0,0,0-.19.17v2.06h1.1c1,0,1.27,0,1.27-.32v-0.37H5725v1.61h-0.26v-0.33c0-.26-0.09-0.27-1.18-0.27h-1.2v1.63c0,1.18.1,1.18,0.39,1.18h0.64c1.62,0,2-.24,2.15-0.5a0.14,0.14,0,0,1,.11-0.1,0.1,0.1,0,0,1,.08.1,7.81,7.81,0,0,1-.24.85H5721v-0.29h0.45a0.13,0.13,0,0,0,.14-0.15v-4Z" transform="translate(-5560.29 -6899.77)"/></g></svg>