<svg id="Calque_1" data-name="Calque 1" xmlns="http://www.w3.org/2000/svg" viewBox="0 0 211.77 211.77"><defs><style>.cls-1{fill:#282f61;}.cls-2{opacity:0.66;}.cls-3{fill:#f4f2f2;}</style></defs><title>fundee</title><circle class="cls-1" cx="105.88" cy="105.88" r="105.88"/><g class="cls-2"><rect class="cls-3" x="121.84" y="75.82" width="4.49" height="8.79"/><path class="cls-3" d="M5683.37,7592.43a9,9,0,0,0-7.71-3.92,10.74,10.74,0,0,0-8.85,4.27q-3.36,4.27-3.36,11.2,0,7.15,3.22,11.38a10.67,10.67,0,0,0,9,4.22,10.83,10.83,0,0,0,7.71-2.86V7619l4.48,0v-34.41h-4.48v7.81Zm0,12.38a13.85,13.85,0,0,1-2,7.42,6.5,6.5,0,0,1-5.67,3q-7.75,0-7.76-11.27,0-5.2,2.11-8.17a6.6,6.6,0,0,1,5.65-3q7.4,0,7.71,10.22v1.74Z" transform="translate(-5561.53 -7498.75)"/><rect class="cls-3" x="73.8" y="104.79" width="4.49" height="15.54"/><polygon class="cls-3" points="93.52 120.33 93.52 120.33 98.01 120.33 98.01 109.49 93.52 109.49 93.52 120.33"/><path class="cls-3" d="M5659.54,7599.67v-0.25a11.31,11.31,0,0,0-3.31-8.55h0a9.06,9.06,0,0,0-2.14-1.58,11.71,11.71,0,0,0-5.59-1.28h-0.19a11.74,11.74,0,0,0-8.49,3.22v-2.68h-4.49v13.66h4.49v-2q0-4.06,2.09-6.12l0.18-.17a7.79,7.79,0,0,1,5.27-1.89h0.13a7.47,7.47,0,0,1,5.52,2q2,2,2,6.15v6.72h4.49v-7.22Z" transform="translate(-5561.53 -7498.75)"/><path class="cls-3" d="M5596.53,7579.71a5.44,5.44,0,0,0-.87,3.37v36.07h-4.49V7582.9a9,9,0,0,1,1.87-5.83q1.87-2.34,5.93-2.34h3.24v3.87h-2.43Q5597.41,7578.59,5596.53,7579.71Z" transform="translate(-5561.53 -7498.75)"/><rect class="cls-3" x="26.89" y="89.79" width="13.96" height="4.11"/><path class="cls-3" d="M5704.42,7588.12a11.29,11.29,0,0,0-9.24,4.12q-3.37,4.12-3.37,11.61a22.71,22.71,0,0,0,1,7,13.39,13.39,0,0,0,2.72,4.9,10.73,10.73,0,0,0,4.22,2.87,15.48,15.48,0,0,0,5.53.94,18.41,18.41,0,0,0,3.53-.31,13.15,13.15,0,0,0,2.9-.91,12.72,12.72,0,0,0,2.47-1.47,22.6,22.6,0,0,0,2.34-2.06l-3.06-2.69a13.14,13.14,0,0,1-3.59,2.65,10.42,10.42,0,0,1-4.46.84,8.27,8.27,0,0,1-6.75-2.78q-2.31-2.78-2.31-7.84H5717V7603q0-6.87-3.31-10.87T5704.42,7588.12Zm-8.12,13.55a20.19,20.19,0,0,1,.25-2.87,12.22,12.22,0,0,1,.69-2.25,7.18,7.18,0,0,1,2.81-3.37,8.27,8.27,0,0,1,8.74,0,7.2,7.2,0,0,1,2.81,3.37c0.17,0.42.3,0.8,0.41,1.16a9.4,9.4,0,0,1,.25,1.09q0.09,0.56.16,1.25t0.12,1.62h-16.24Z" transform="translate(-5561.53 -7498.75)"/><path class="cls-3" d="M5742.79,7612.16a13.14,13.14,0,0,1-3.59,2.65,10.43,10.43,0,0,1-4.47.84,8.27,8.27,0,0,1-6.74-2.78q-2.31-2.78-2.31-7.84h20.73V7603q0-6.87-3.31-10.87t-9.3-4a11.3,11.3,0,0,0-9.24,4.12q-3.37,4.12-3.37,11.61a22.69,22.69,0,0,0,1,7,13.38,13.38,0,0,0,2.72,4.9,10.74,10.74,0,0,0,4.21,2.87,15.48,15.48,0,0,0,5.53.94,18.42,18.42,0,0,0,3.53-.31,13.14,13.14,0,0,0,2.9-.91,12.77,12.77,0,0,0,2.47-1.47,22.73,22.73,0,0,0,2.34-2.06Zm-16.86-13.36a12.27,12.27,0,0,1,.69-2.25,7.19,7.19,0,0,1,2.81-3.37,8.27,8.27,0,0,1,8.74,0,7.2,7.2,0,0,1,2.81,3.37q0.25,0.63.41,1.16a9.39,9.39,0,0,1,.25,1.09q0.09,0.56.16,1.25t0.12,1.62h-16.24A20.41,20.41,0,0,1,5725.93,7598.8Z" transform="translate(-5561.53 -7498.75)"/><path class="cls-3" d="M5626.16,7588.55v18.84q0,4.06-2.09,6.12l-0.18.17a7.79,7.79,0,0,1-5.27,1.89h-0.13a7.47,7.47,0,0,1-5.52-2q-2-2-2-6.15v-18.84h-4.49v19.59a11.31,11.31,0,0,0,3.31,8.55h0a9.06,9.06,0,0,0,2.14,1.58,11.71,11.71,0,0,0,5.59,1.28h0.19a11.73,11.73,0,0,0,8.49-3.22v2.74h4.49v-30.53h-4.49Z" transform="translate(-5561.53 -7498.75)"/><rect class="cls-3" x="73.81" y="104.72" width="4.49" height="15.61"/><rect class="cls-3" x="93.49" y="109.41" width="4.51" height="10.9"/></g></svg>