<svg id="Calque_1" data-name="Calque 1" xmlns="http://www.w3.org/2000/svg" viewBox="0 0 209.84 209.84"><defs><style>.cls-1{fill:#002e6d;}.cls-2{opacity:0.66;}.cls-3{fill:#f4f2f2;}</style></defs><title>leemo</title><circle class="cls-1" cx="104.92" cy="104.92" r="104.92"/><g class="cls-2"><path class="cls-3" d="M5598.27,7932.62h-0.33l-2.08-4.82-2.07,4.82h-0.33l-2.53-7.23h1.34l1.51,4.65,1.88-4.65H5596l1.94,4.65,1.63-4.65h1.24l-2.54,7.23h0Zm12.78,0h-0.33l-2.08-4.82-2.07,4.82h-0.33l-2.53-7.23h1.34l1.51,4.65,1.88-4.65h0.33l1.94,4.65,1.63-4.65h1.24l-2.54,7.23h0Zm12.78,0h-0.33l-2.08-4.82-2.07,4.82H5619l-2.53-7.23h1.34l1.51,4.65,1.88-4.65h0.33l1.94,4.65,1.63-4.65h1.24l-2.54,7.23h0Zm7-.29a1,1,0,0,1-1.4,0,1,1,0,0,1,0-1.4,1,1,0,1,1,1.4,1.4h0Zm5.63-1.84v-8h1.26v7.77a1.21,1.21,0,0,0,.33.9,1.15,1.15,0,0,0,.86.33v1.12q-2.44,0-2.44-2.13h0Zm12.56-1.42h-5.1a2.55,2.55,0,0,0,.68,1.91,2.13,2.13,0,0,0,1.55.58,2.64,2.64,0,0,0,1.8-.63l0.53,0.91a2.37,2.37,0,0,1-.89.5,4.82,4.82,0,0,1-1.68.28,3.14,3.14,0,0,1-2.27-.9,3.55,3.55,0,0,1-1-2.68,3.78,3.78,0,0,1,1.06-2.81,3.1,3.1,0,0,1,2.25-.95,3.22,3.22,0,0,1,2.37.85,2.92,2.92,0,0,1,.83,2.18,2.78,2.78,0,0,1-.1.77h0Zm-1.63-2.18a1.86,1.86,0,0,0-1.42-.56,2,2,0,0,0-2,1.82h3.92a1.79,1.79,0,0,0-.48-1.27h0Zm11.72,2.18H5654a2.55,2.55,0,0,0,.68,1.91,2.13,2.13,0,0,0,1.55.58,2.64,2.64,0,0,0,1.8-.63l0.53,0.91a2.37,2.37,0,0,1-.89.5,4.82,4.82,0,0,1-1.68.28,3.13,3.13,0,0,1-2.27-.9,3.55,3.55,0,0,1-1-2.68,3.79,3.79,0,0,1,1.06-2.81,3.1,3.1,0,0,1,2.25-.95,3.22,3.22,0,0,1,2.37.85,2.91,2.91,0,0,1,.83,2.18,2.81,2.81,0,0,1-.1.77h0Zm-1.62-2.18a1.86,1.86,0,0,0-1.42-.56,2,2,0,0,0-2,1.82h3.92a1.79,1.79,0,0,0-.47-1.27h0Zm14,5.6V7928q0-1.67-1.45-1.67a1.44,1.44,0,0,0-.85.28,1.48,1.48,0,0,0-.54.64v5.24h-1.26v-5a1,1,0,0,0-.39-0.82,1.66,1.66,0,0,0-1-.3,1.44,1.44,0,0,0-.8.29,1.77,1.77,0,0,0-.6.64v5.22h-1.26v-7.08H5664l0.42,0.82a2.2,2.2,0,0,1,1.82-1,2.33,2.33,0,0,1,2.13.95,1.63,1.63,0,0,1,.79-0.67,2.74,2.74,0,0,1,1.18-.27,2.2,2.2,0,0,1,1.7.65,2.59,2.59,0,0,1,.6,1.83v4.73h-1.26Zm10.83-.86a3.28,3.28,0,0,1-4.7,0,4,4,0,0,1-.85-2.69,3.88,3.88,0,0,1,.88-2.65,3.27,3.27,0,0,1,4.68,0,4.7,4.7,0,0,1,0,5.39h0Zm-2.34-5.33a1.62,1.62,0,0,0-1.37.7,3.21,3.21,0,0,0-.51,1.93q0,2.66,1.88,2.66a1.59,1.59,0,0,0,1.38-.72,3.36,3.36,0,0,0,.5-1.95q0-2.63-1.88-2.63h0Zm9.38,6a1,1,0,0,1-1.4,0,1,1,0,0,1,0-1.4,1,1,0,0,1,1.4,1.4h0Zm9.36-8.69a2.23,2.23,0,0,0-.71-0.13,1.2,1.2,0,0,0-.95.44,1.64,1.64,0,0,0-.37,1.1,2.09,2.09,0,0,0,0,.37h1.44v1.06h-1.44v6h-1.26v-6h-1v-1.06h1a3.15,3.15,0,0,1,.67-2.13,2.22,2.22,0,0,1,1.76-.77,3.93,3.93,0,0,1,1.18.2l-0.35.93h0Zm7.73,3a1.43,1.43,0,0,0-.83-0.28,1.47,1.47,0,0,0-1.17.61,2.28,2.28,0,0,0-.5,1.48v4.06h-1.26v-7.08h1.26v1.13a2.2,2.2,0,0,1,2-1.26,5.82,5.82,0,0,1,1,.12l-0.52,1.22h0Z" transform="translate(-5562.49 -7798.58)"/><path class="cls-3" d="M5727.13,7901.59v-1.81h-1.95v3.76l-4.63,4.63h3.91v5.05a10.61,10.61,0,0,0,14.16-13.41l-4.86-4.86Z" transform="translate(-5562.49 -7798.58)"/><path class="cls-3" d="M5615.84,7887.78a11.32,11.32,0,0,0-9.27,4.13q-3.38,4.13-3.38,11.64a22.77,22.77,0,0,0,1,7,13.43,13.43,0,0,0,2.72,4.92,10.76,10.76,0,0,0,4.23,2.88,15.52,15.52,0,0,0,5.54.94,18.46,18.46,0,0,0,3.54-.31,13.18,13.18,0,0,0,2.91-.91,12.75,12.75,0,0,0,2.47-1.47,22.66,22.66,0,0,0,2.35-2.07l-3.07-2.69a13.18,13.18,0,0,1-3.6,2.66,10.44,10.44,0,0,1-4.48.85,8.29,8.29,0,0,1-6.76-2.79q-2.32-2.79-2.32-7.86h20.78v-2.07q0-6.89-3.32-10.89T5615.84,7887.78Zm-8.14,13.58a20.25,20.25,0,0,1,.25-2.88,12.25,12.25,0,0,1,.69-2.25,7.2,7.2,0,0,1,2.82-3.38,8.29,8.29,0,0,1,8.76,0,7.22,7.22,0,0,1,2.82,3.38c0.17,0.42.3,0.81,0.41,1.16a9.43,9.43,0,0,1,.25,1.1q0.09,0.56.16,1.25t0.13,1.63H5607.7Z" transform="translate(-5562.49 -7798.58)"/><path class="cls-3" d="M5595.71,7914a5.46,5.46,0,0,1-.88-3.38v-36.19h-4.51v36.37a9.07,9.07,0,0,0,1.88,5.85q1.88,2.35,5.95,2.35h3.25v-3.88H5599Q5596.59,7915.08,5595.71,7914Z" transform="translate(-5562.49 -7798.58)"/><path class="cls-3" d="M5728.69,7887.66a15.81,15.81,0,1,0,15.81,15.81A15.81,15.81,0,0,0,5728.69,7887.66Zm0,27.24a11.43,11.43,0,1,1,11.43-11.43A11.43,11.43,0,0,1,5728.69,7914.9Z" transform="translate(-5562.49 -7798.58)"/><path class="cls-3" d="M5710.63,7929.88l4,2.29,7.72-13.37a16.55,16.55,0,0,1-3.94-2.33Z" transform="translate(-5562.49 -7798.58)"/><path class="cls-3" d="M5700.32,7888.53a12.76,12.76,0,0,0-4.51-.75,11.72,11.72,0,0,0-10.14,5.13,9.51,9.51,0,0,0-3.85-3.85,11.75,11.75,0,0,0-5.6-1.28,12.3,12.3,0,0,0-4.85.94,10.39,10.39,0,0,0-3.85,2.82v-3.38H5663V7919h4.51v-19q0-4.07,2.1-6.14a7.63,7.63,0,0,1,5.6-2.07,7.49,7.49,0,0,1,5.54,2q2,2,2,6.17v19h4.51v-19.47a7.39,7.39,0,0,1,2.16-5.7,7.83,7.83,0,0,1,5.54-2,7.49,7.49,0,0,1,5.54,2q2,2,2,6.17v19h4.51v-19.72a11.35,11.35,0,0,0-3.32-8.58A10,10,0,0,0,5700.32,7888.53Z" transform="translate(-5562.49 -7798.58)"/><path class="cls-3" d="M5654.15,7911.89a13.17,13.17,0,0,1-3.6,2.66,10.45,10.45,0,0,1-4.48.85,8.29,8.29,0,0,1-6.76-2.79q-2.32-2.79-2.32-7.86h20.79v-2.07q0-6.89-3.32-10.89t-9.33-4a11.32,11.32,0,0,0-9.27,4.13q-3.38,4.13-3.38,11.64a22.75,22.75,0,0,0,1,7,13.42,13.42,0,0,0,2.72,4.92,10.76,10.76,0,0,0,4.23,2.88,15.52,15.52,0,0,0,5.54.94,18.46,18.46,0,0,0,3.54-.31,13.17,13.17,0,0,0,2.91-.91,12.81,12.81,0,0,0,2.47-1.47,22.78,22.78,0,0,0,2.35-2.07Zm-16.9-13.4a12.31,12.31,0,0,1,.69-2.25,7.21,7.21,0,0,1,2.82-3.38,8.29,8.29,0,0,1,8.76,0,7.21,7.21,0,0,1,2.82,3.38q0.25,0.63.41,1.16a9.41,9.41,0,0,1,.25,1.1q0.09,0.56.16,1.25t0.13,1.63H5637A20.46,20.46,0,0,1,5637.25,7898.49Z" transform="translate(-5562.49 -7798.58)"/></g></svg>