<svg id="Calque_1" data-name="Calque 1" xmlns="http://www.w3.org/2000/svg" viewBox="0 0 224.66 224.66"><defs><style>.cls-1{fill:#55565a;}.cls-2{opacity:0.66;}.cls-3{fill:#f4f2f2;}</style></defs><title>orelis</title><circle class="cls-1" cx="112.33" cy="112.33" r="112.33"/><g class="cls-2"><path class="cls-3" d="M5599.71,6704.25a6.18,6.18,0,0,0-1.32-2.26,5.3,5.3,0,0,0-2-1.32,7,7,0,0,0-2.47-.43,6.88,6.88,0,0,0-2.45.43,5.29,5.29,0,0,0-2,1.32,6.18,6.18,0,0,0-1.32,2.26,11.35,11.35,0,0,0,0,6.48,6.17,6.17,0,0,0,1.32,2.26,5.24,5.24,0,0,0,2,1.32,6.9,6.9,0,0,0,2.45.43,7,7,0,0,0,2.47-.43,5.25,5.25,0,0,0,2-1.32,6.17,6.17,0,0,0,1.32-2.26,11.3,11.3,0,0,0,0-6.48m-13.61-.18a7.14,7.14,0,0,1,1.74-2.54,7.52,7.52,0,0,1,2.68-1.58,11.14,11.14,0,0,1,6.85,0,7.51,7.51,0,0,1,2.68,1.58,7.12,7.12,0,0,1,1.74,2.54,9.72,9.72,0,0,1,0,6.84,7,7,0,0,1-4.42,4.09,11.74,11.74,0,0,1-6.85,0,7,7,0,0,1-4.42-4.09,9.73,9.73,0,0,1,0-6.84" transform="translate(-5555.08 -6595.7)"/><path class="cls-3" d="M5618.27,6706.93l0.82,0a7.27,7.27,0,0,0,1.46-.16,4.28,4.28,0,0,0,1.39-.55,3.31,3.31,0,0,0,1-1.06,3.11,3.11,0,0,0,.42-1.68,2.94,2.94,0,0,0-.33-1.46,2.61,2.61,0,0,0-.85-0.92,3.23,3.23,0,0,0-1.13-.46,6,6,0,0,0-1.2-.12c-0.53,0-1,0-1.31,0l-0.88.08c0,0.83-.06,1.65-0.09,2.47s0,1.63,0,2.44v1.29a4.7,4.7,0,0,0,.69.09m-2.6-4.3c0-1-.08-1.93-0.12-2.93l1.29,0.08c0.42,0,.85,0,1.29,0s0.87,0,1.29-.05,0.85-.06,1.29-0.06a8.83,8.83,0,0,1,1.81.18,4.4,4.4,0,0,1,1.5.6,3,3,0,0,1,1,1.09,3.91,3.91,0,0,1-.11,3.56,4.52,4.52,0,0,1-1.19,1.29,5.88,5.88,0,0,1-1.5.79,7.42,7.42,0,0,1-1.46.37l0.74,0.95,1.06,1.34,1.22,1.54L5625,6713c0.39,0.49.76,0.94,1.11,1.34s0.62,0.72.83,0.93a5.16,5.16,0,0,0-.68,0h-1.33a4.62,4.62,0,0,0-.65,0l-1-1.42q-0.69-.95-1.53-2c-0.56-.72-1.12-1.44-1.71-2.16s-1.11-1.32-1.59-1.82h-0.86v1.65q0,1.49.06,2.94c0,1,.08,1.91.12,2.85-0.35,0-.72,0-1.11,0s-0.76,0-1.1,0c0-.93.09-1.88,0.12-2.85s0.06-1.94.06-2.94v-3.88q0-1.49-.06-2.93" transform="translate(-5555.08 -6595.7)"/><path class="cls-3" d="M5639.65,6702.59q-0.06-1.45-.12-2.89l2,0.08q1,0,2,0c0.68,0,1.35,0,2,0l2-.08a3.4,3.4,0,0,0,0,1.36l-1.32-.09-1.26-.09-1.46-.07q-0.79,0-1.9,0,0,0.72-.05,1.38c0,0.44,0,.93,0,1.49s0,1.16,0,1.71,0,1,0,1.27l1.78,0,1.45-.06,1.21-.07,1.05-.08a3.45,3.45,0,0,0-.07.7,3.32,3.32,0,0,0,.07.68c-0.39,0-.85-0.08-1.37-0.11s-1,0-1.56-.06l-1.47,0h-1.09c0,0.14,0,.28,0,0.44s0,0.36,0,.6v2.24q0,1.29,0,2.13c0,0.56,0,1,0,1.26h1.58c0.57,0,1.13,0,1.68,0s1.07-.05,1.56-0.09a10.29,10.29,0,0,0,1.28-.17,1.56,1.56,0,0,0-.05.35c0,0.13,0,.24,0,0.35a2.08,2.08,0,0,0,.07.59q-1,0-2,0h-4.1c-0.68,0-1.36,0-2.06,0,0-1,.09-1.93.12-2.88s0.06-1.93.06-2.93v-3.89q0-1.49-.06-2.94" transform="translate(-5555.08 -6595.7)"/><path class="cls-3" d="M5661.11,6702.63c0-1-.08-1.93-0.12-2.93l0.56,0.08a4.26,4.26,0,0,0,1.09,0l0.57-.08c0,1-.09,2-0.13,2.93s-0.05,1.93-.05,2.93q0,2.84,0,4.94c0,1.39,0,2.64,0,3.74q1.6,0,3.07,0a28.91,28.91,0,0,0,3.16-.26,2.65,2.65,0,0,0-.11.68,2.11,2.11,0,0,0,.11.61c-0.69,0-1.39,0-2.08,0h-4.17c-0.67,0-1.37,0-2.09,0,0-.93.08-1.88,0.12-2.85s0.06-1.94.06-2.94v-3.89q0-1.49-.06-2.93" transform="translate(-5555.08 -6595.7)"/><path class="cls-3" d="M5682.58,6702.63c0-1-.08-1.93-0.12-2.93l0.57,0.08a4.22,4.22,0,0,0,1.08,0l0.57-.08c0,1-.09,2-0.13,2.93s-0.05,1.93-.05,2.93v3.89q0,1.49.05,2.94t0.13,2.85q-0.52,0-1.11,0c-0.39,0-.76,0-1.11,0q0.07-1.4.12-2.85t0.06-2.94v-3.89q0-1.49-.06-2.93" transform="translate(-5555.08 -6595.7)"/><path class="cls-3" d="M5699.07,6713.11a3.61,3.61,0,0,0,.75.76,3.78,3.78,0,0,0,2.34.77,3.35,3.35,0,0,0,1.35-.26,3,3,0,0,0,1.66-1.74,3.63,3.63,0,0,0,.23-1.28,2.42,2.42,0,0,0-.53-1.65,4.38,4.38,0,0,0-1.32-1,15,15,0,0,0-1.71-.74,9.05,9.05,0,0,1-1.71-.85,4.54,4.54,0,0,1-1.32-1.3,3.76,3.76,0,0,1-.53-2.12,4.28,4.28,0,0,1,.34-1.73,3.79,3.79,0,0,1,1-1.35,4.76,4.76,0,0,1,1.55-.88,6.15,6.15,0,0,1,2-.31,6,6,0,0,1,1.87.26,4.65,4.65,0,0,1,1.47.8,5.16,5.16,0,0,0-.34.81c-0.09.29-.18,0.65-0.27,1.09h-0.27a6.06,6.06,0,0,0-.3-0.69,2.7,2.7,0,0,0-.52-0.69,3,3,0,0,0-.78-0.53,2.51,2.51,0,0,0-1.08-.21,3.2,3.2,0,0,0-1.16.2,2.75,2.75,0,0,0-.93.58,2.56,2.56,0,0,0-.61.89,3,3,0,0,0-.21,1.13,2.47,2.47,0,0,0,.53,1.67,4.55,4.55,0,0,0,1.32,1,13.4,13.4,0,0,0,1.71.75,9.5,9.5,0,0,1,1.7.8,4.31,4.31,0,0,1,1.32,1.22,3.36,3.36,0,0,1,.53,2,5.2,5.2,0,0,1-.37,2,4.61,4.61,0,0,1-1.08,1.61,4.84,4.84,0,0,1-1.74,1.06,6.79,6.79,0,0,1-2.34.37,5.8,5.8,0,0,1-2.27-.37,6.27,6.27,0,0,1-1.46-.85,5.35,5.35,0,0,0,.28-0.94c0.05-.28.1-0.64,0.15-1.07h0.27a4.52,4.52,0,0,0,.49.82" transform="translate(-5555.08 -6595.7)"/><polygon class="cls-3" points="178.57 95.82 162.38 111.95 166.4 115.99 173.15 109.26 181.11 117.25 174.35 123.97 178.34 127.99 194.54 111.86 178.57 95.82"/><polygon class="cls-3" points="166.12 120.11 167.15 121.14 168.87 119.42 170.9 121.46 169.17 123.18 170.19 124.2 174.33 120.09 170.25 116 166.12 120.11"/><path class="cls-3" d="M5585.2,6724.27a0.21,0.21,0,0,0,.16,0,0.29,0.29,0,0,0,0-.18v-2.83a0.3,0.3,0,0,0,0-.18,0.21,0.21,0,0,0-.16,0v-0.09h0.88V6721a0.21,0.21,0,0,0-.16,0,0.31,0.31,0,0,0,0,.18v2.83a0.31,0.31,0,0,0,0,.18,0.21,0.21,0,0,0,.16,0v0.09h-0.88v-0.09Z" transform="translate(-5555.08 -6595.7)"/><path class="cls-3" d="M5588.9,6724.27a0.24,0.24,0,0,0,.17,0,0.25,0.25,0,0,0,0-.18v-2.83a0.25,0.25,0,0,0,0-.18,0.24,0.24,0,0,0-.17,0v-0.09H5590V6721l-0.17,0a0.06,0.06,0,0,0,0,.05,0.44,0.44,0,0,0,.09.13l2.13,2.44v-2.43a0.25,0.25,0,0,0,0-.18,0.24,0.24,0,0,0-.17,0v-0.09h0.87V6721a0.24,0.24,0,0,0-.17,0,0.26,0.26,0,0,0,0,.18v2.83a0.26,0.26,0,0,0,0,.18,0.24,0.24,0,0,0,.17,0v0.09h-1.05v-0.09a0.56,0.56,0,0,0,.19,0,0.05,0.05,0,0,0,0-.05,0.1,0.1,0,0,0,0-.07l-0.07-.07-2.23-2.54v2.53a0.25,0.25,0,0,0,0,.18,0.24,0.24,0,0,0,.17,0v0.09h-0.87v-0.09Z" transform="translate(-5555.08 -6595.7)"/><path class="cls-3" d="M5595.7,6720.91V6721a0.21,0.21,0,0,0-.12,0,0.11,0.11,0,0,0-.06.11,0.19,0.19,0,0,0,0,.09l0.05,0.12,1.12,2.38,1-2.44,0-.09a0.19,0.19,0,0,0,0-.08c0-.08-0.06-0.12-0.17-0.12v-0.09h0.8V6721a0.17,0.17,0,0,0-.16.13l-1.2,2.85,0,0.09a0.24,0.24,0,0,0,0,.09c0,0.07.06,0.11,0.17,0.1v0.09h-0.91v-0.09c0.09,0,.14,0,0.14-0.07a0.36,0.36,0,0,0,0-.12l-0.09-.19-1.27-2.73a0.33,0.33,0,0,0-.09-0.12,0.23,0.23,0,0,0-.15,0v-0.09h0.93Z" transform="translate(-5555.08 -6595.7)"/><path class="cls-3" d="M5600.7,6721.23a0.3,0.3,0,0,0,0-.18,0.18,0.18,0,0,0-.15,0v-0.09h3.17a0.2,0.2,0,0,0,.16,0,0.21,0.21,0,0,0,0-.14h0.1v0.82h-0.1a0.21,0.21,0,0,0,0-.15,0.21,0.21,0,0,0-.16,0h-2.47v1H5603a0.2,0.2,0,0,0,.16,0,0.21,0.21,0,0,0,0-.14h0.09V6723h-0.09a0.21,0.21,0,0,0,0-.15,0.21,0.21,0,0,0-.16,0h-1.74v1.12h2.55a0.22,0.22,0,0,0,.16,0,0.21,0.21,0,0,0,0-.15h0.09v0.79H5604a0.16,0.16,0,0,0,0-.13,0.28,0.28,0,0,0-.16,0h-3.25v-0.09a0.18,0.18,0,0,0,.15,0,0.29,0.29,0,0,0,0-.18v-2.83Z" transform="translate(-5555.08 -6595.7)"/><path class="cls-3" d="M5606.63,6723.4a0.64,0.64,0,0,0,0,.1,0.22,0.22,0,0,0,.12.14,1.45,1.45,0,0,0,.32.15,3.31,3.31,0,0,0,.46.12,2.86,2.86,0,0,0,.55.05,2,2,0,0,0,.84-0.14,0.45,0.45,0,0,0,.3-0.41,0.37,0.37,0,0,0-.21-0.35,1.71,1.71,0,0,0-.52-0.14l-0.68-.06a3.59,3.59,0,0,1-.68-0.1,1.25,1.25,0,0,1-.52-0.26,0.68,0.68,0,0,1-.21-0.54,0.94,0.94,0,0,1,.45-0.84,1.43,1.43,0,0,1,.48-0.19,2.77,2.77,0,0,1,.56-0.06,3,3,0,0,1,.54,0l0.41,0.1,0.27,0.1,0.15,0,0.06,0a0.34,0.34,0,0,0,.06-0.09l0.1,0-0.29.77-0.1,0v0a0.42,0.42,0,0,0,0-.06,0.19,0.19,0,0,0-.11-0.13,1.31,1.31,0,0,0-.28-0.13,2.46,2.46,0,0,0-.4-0.1,2.71,2.71,0,0,0-.46,0,2,2,0,0,0-.5.05,0.85,0.85,0,0,0-.29.13,0.43,0.43,0,0,0-.15.19,0.61,0.61,0,0,0,0,.22,0.34,0.34,0,0,0,.21.33,1.77,1.77,0,0,0,.52.14l0.68,0.06a3.66,3.66,0,0,1,.68.1,1.29,1.29,0,0,1,.52.26,0.66,0.66,0,0,1,.21.53,0.92,0.92,0,0,1-.41.83,2.46,2.46,0,0,1-1.31.26,3.23,3.23,0,0,1-.56,0,3.51,3.51,0,0,1-.44-0.1l-0.33-.11a0.64,0.64,0,0,0-.2-0.05,0.11,0.11,0,0,0-.09,0,0.25,0.25,0,0,0,0,.08l-0.09,0,0.31-.79Z" transform="translate(-5555.08 -6595.7)"/><path class="cls-3" d="M5615,6721.54a0.22,0.22,0,0,0,0-.15,0.22,0.22,0,0,0-.16,0h-1.22v2.7a0.3,0.3,0,0,0,0,.18,0.21,0.21,0,0,0,.16,0v0.09h-0.91v-0.09a0.2,0.2,0,0,0,.16,0,0.29,0.29,0,0,0,0-.18v-2.7h-1.22a0.16,0.16,0,0,0-.2.19h-0.1v-0.82h0.1a0.16,0.16,0,0,0,.2.19h3a0.16,0.16,0,0,0,.2-0.19h0.09v0.82H5615Z" transform="translate(-5555.08 -6595.7)"/><path class="cls-3" d="M5617.4,6724.27a0.21,0.21,0,0,0,.16,0,0.31,0.31,0,0,0,0-.18v-2.83a0.31,0.31,0,0,0,0-.18,0.21,0.21,0,0,0-.16,0v-0.09h0.88V6721a0.21,0.21,0,0,0-.16,0,0.3,0.3,0,0,0,0,.18v2.83a0.29,0.29,0,0,0,0,.18,0.21,0.21,0,0,0,.16,0v0.09h-0.88v-0.09Z" transform="translate(-5555.08 -6595.7)"/><path class="cls-3" d="M5621.8,6724.05a0.29,0.29,0,0,0,0,.18,0.21,0.21,0,0,0,.16,0v0.09h-0.88v-0.09a0.21,0.21,0,0,0,.16,0,0.29,0.29,0,0,0,0-.18v-2.83a0.3,0.3,0,0,0,0-.18,0.21,0.21,0,0,0-.16,0v-0.09h2.4a1,1,0,0,1,.76.26,1,1,0,0,1,.24.71,0.9,0.9,0,0,1-.25.69,1,1,0,0,1-.7.25l0.86,1.32a0.4,0.4,0,0,0,.1.11,0.17,0.17,0,0,0,.1,0v0.09h-0.85v-0.09h0.11a0.06,0.06,0,0,0,0-.05,0.15,0.15,0,0,0,0-.08l-0.06-.11-0.77-1.21h-1.24v1.24Zm1.67-1.68a0.54,0.54,0,0,0,.4-0.13,0.55,0.55,0,0,0,.12-0.38,0.59,0.59,0,0,0-.12-0.41,0.65,0.65,0,0,0-.47-0.13h-1.6v1.05h1.67Z" transform="translate(-5555.08 -6595.7)"/><path class="cls-3" d="M5630.17,6724.27a0.21,0.21,0,0,0,.17-0.05,0.83,0.83,0,0,0,.08-0.14l1.24-2.84a0.41,0.41,0,0,0,0-.13,0.09,0.09,0,0,0,0-.07,0.32,0.32,0,0,0-.15,0v-0.08h1.27V6721l-0.12,0a0.08,0.08,0,0,0-.06.07,0.19,0.19,0,0,0,0,.08l0,0.08,1.34,2.86a0.39,0.39,0,0,0,.07.11,0.23,0.23,0,0,0,.17.05v0.09h-1v-0.09a0.47,0.47,0,0,0,.19,0,0.07,0.07,0,0,0,0-.07,0.28,0.28,0,0,0,0-.1l0-.08-0.32-.66h-1.91l-0.27.6-0.07.13a0.26,0.26,0,0,0,0,.1,0.08,0.08,0,0,0,0,.07,0.38,0.38,0,0,0,.16,0v0.09h-0.88v-0.09Zm1.22-1.37h1.53l-0.79-1.65Z" transform="translate(-5555.08 -6595.7)"/><path class="cls-3" d="M5636.67,6720.91V6721a0.21,0.21,0,0,0-.13,0,0.12,0.12,0,0,0-.05.11,0.2,0.2,0,0,0,0,.09l0.06,0.12,1.12,2.38,1-2.44,0-.09a0.27,0.27,0,0,0,0-.08c0-.08-0.06-0.12-0.17-0.12v-0.09h0.8V6721a0.18,0.18,0,0,0-.16.13L5638,6724l0,0.09a0.25,0.25,0,0,0,0,.09c0,0.07.06,0.11,0.17,0.1v0.09h-0.91v-0.09c0.09,0,.14,0,0.14-0.07a0.31,0.31,0,0,0,0-.12l-0.08-.19-1.27-2.73a0.32,0.32,0,0,0-.09-0.12,0.23,0.23,0,0,0-.14,0v-0.09h0.93Z" transform="translate(-5555.08 -6595.7)"/><path class="cls-3" d="M5641.67,6721.23a0.31,0.31,0,0,0,0-.18,0.18,0.18,0,0,0-.15,0v-0.09h3.17a0.16,0.16,0,0,0,.2-0.19H5645v0.82h-0.09a0.16,0.16,0,0,0-.2-0.19h-2.47v1h1.74a0.21,0.21,0,0,0,.16,0,0.21,0.21,0,0,0,0-.14h0.09V6723h-0.09a0.21,0.21,0,0,0,0-.15,0.21,0.21,0,0,0-.16,0h-1.74v1.12h2.56a0.22,0.22,0,0,0,.16,0,0.22,0.22,0,0,0,0-.15H5645v0.79h-0.09a0.17,0.17,0,0,0,0-.13,0.28,0.28,0,0,0-.16,0h-3.26v-0.09a0.18,0.18,0,0,0,.15,0,0.3,0.3,0,0,0,0-.18v-2.83Z" transform="translate(-5555.08 -6595.7)"/><path class="cls-3" d="M5650.24,6721.88a0.26,0.26,0,0,0,0-.06v-0.07a0.2,0.2,0,0,0-.1-0.12,1.6,1.6,0,0,0-.27-0.15,2.39,2.39,0,0,0-.38-0.13,1.82,1.82,0,0,0-.42-0.05,1.63,1.63,0,0,0-.61.11,1.37,1.37,0,0,0-.45.29,1.26,1.26,0,0,0-.29.43,1.35,1.35,0,0,0-.1.52,1.28,1.28,0,0,0,.1.51,1.13,1.13,0,0,0,.28.41,1.38,1.38,0,0,0,.44.27,1.53,1.53,0,0,0,.56.1,2.14,2.14,0,0,0,.55-0.06,1.76,1.76,0,0,0,.41-0.15,1.11,1.11,0,0,0,.25-0.18,0.26,0.26,0,0,0,.08-0.14,0.39,0.39,0,0,0,0-.16l0.08,0,0.55,0.72-0.08.06-0.1-.06h-0.05a0.39,0.39,0,0,0-.19.08l-0.32.17a2.48,2.48,0,0,1-1.12.24,2.59,2.59,0,0,1-.75-0.11,1.65,1.65,0,0,1-.61-0.33,1.62,1.62,0,0,1-.41-0.55,1.84,1.84,0,0,1-.15-0.75,1.78,1.78,0,0,1,.15-0.75,1.63,1.63,0,0,1,.42-0.56,1.89,1.89,0,0,1,.62-0.35,2.29,2.29,0,0,1,.75-0.12,3.28,3.28,0,0,1,.56,0,2.67,2.67,0,0,1,.45.13l0.26,0.1a0.4,0.4,0,0,0,.16,0,0.17,0.17,0,0,0,.13-0.09l0.09,0-0.38.81Z" transform="translate(-5555.08 -6595.7)"/><path class="cls-3" d="M5656.14,6724.27a0.21,0.21,0,0,0,.17-0.05,0.75,0.75,0,0,0,.08-0.14l1.24-2.84a0.44,0.44,0,0,0,0-.13,0.09,0.09,0,0,0,0-.07,0.34,0.34,0,0,0-.15,0v-0.08h1.27V6721l-0.12,0a0.08,0.08,0,0,0-.06.08,0.17,0.17,0,0,0,0,.08l0,0.08,1.34,2.86a0.39,0.39,0,0,0,.07.11,0.23,0.23,0,0,0,.17.05v0.09h-1v-0.09a0.47,0.47,0,0,0,.19,0,0.07,0.07,0,0,0,0-.07,0.28,0.28,0,0,0,0-.1l0-.08-0.32-.66h-1.91l-0.27.6-0.07.13a0.24,0.24,0,0,0,0,.1,0.07,0.07,0,0,0,0,.07,0.39,0.39,0,0,0,.16,0v0.09h-0.88v-0.09Zm1.22-1.37h1.53l-0.79-1.65Z" transform="translate(-5555.08 -6595.7)"/><path class="cls-3" d="M5662.4,6723.4a0.77,0.77,0,0,0,0,.1,0.22,0.22,0,0,0,.12.14,1.48,1.48,0,0,0,.32.15,3.24,3.24,0,0,0,.46.12,2.86,2.86,0,0,0,.55.05,2,2,0,0,0,.85-0.14,0.45,0.45,0,0,0,.3-0.41,0.36,0.36,0,0,0-.21-0.35,1.69,1.69,0,0,0-.52-0.15l-0.68-.06a3.69,3.69,0,0,1-.68-0.1,1.26,1.26,0,0,1-.52-0.26,0.68,0.68,0,0,1-.21-0.54,1,1,0,0,1,.12-0.51,1,1,0,0,1,.33-0.34,1.41,1.41,0,0,1,.47-0.19,2.76,2.76,0,0,1,.56-0.06,3,3,0,0,1,.54,0l0.4,0.1,0.27,0.1,0.15,0,0.06,0a0.33,0.33,0,0,0,.06-0.09l0.1,0-0.29.77-0.1,0v0a0.43,0.43,0,0,0,0-.06,0.18,0.18,0,0,0-.11-0.13,1.28,1.28,0,0,0-.28-0.13,2.45,2.45,0,0,0-.4-0.1,2.74,2.74,0,0,0-.46,0,2,2,0,0,0-.49.05,0.85,0.85,0,0,0-.3.13,0.44,0.44,0,0,0-.15.19,0.66,0.66,0,0,0,0,.22,0.34,0.34,0,0,0,.21.33,1.77,1.77,0,0,0,.52.14l0.68,0.06a3.65,3.65,0,0,1,.68.1,1.29,1.29,0,0,1,.52.26,0.66,0.66,0,0,1,.21.53,0.92,0.92,0,0,1-.4.83,2.47,2.47,0,0,1-1.31.26,3.25,3.25,0,0,1-.56,0,3.36,3.36,0,0,1-.44-0.1l-0.33-.11a0.63,0.63,0,0,0-.2-0.05,0.12,0.12,0,0,0-.09,0l0,0.08-0.09,0,0.3-.79Z" transform="translate(-5555.08 -6595.7)"/><path class="cls-3" d="M5668,6723.4a0.92,0.92,0,0,0,0,.1,0.22,0.22,0,0,0,.12.14,1.51,1.51,0,0,0,.32.15,3.3,3.3,0,0,0,.46.12,2.87,2.87,0,0,0,.55.05,2,2,0,0,0,.84-0.14,0.45,0.45,0,0,0,.3-0.41,0.36,0.36,0,0,0-.21-0.35,1.71,1.71,0,0,0-.52-0.15l-0.68-.06a3.64,3.64,0,0,1-.68-0.1,1.25,1.25,0,0,1-.52-0.26,0.68,0.68,0,0,1-.21-0.54,0.94,0.94,0,0,1,.45-0.84,1.43,1.43,0,0,1,.48-0.19,2.76,2.76,0,0,1,.56-0.06,3,3,0,0,1,.54,0l0.4,0.1,0.27,0.1,0.15,0,0.06,0a0.3,0.3,0,0,0,.06-0.09l0.1,0-0.29.77-0.09,0v0a0.29,0.29,0,0,0,0-.06,0.19,0.19,0,0,0-.11-0.13,1.26,1.26,0,0,0-.28-0.13,2.47,2.47,0,0,0-.4-0.1,2.73,2.73,0,0,0-.46,0,2,2,0,0,0-.5.05,0.85,0.85,0,0,0-.3.13,0.43,0.43,0,0,0-.14.19,0.59,0.59,0,0,0,0,.22,0.34,0.34,0,0,0,.21.33,1.76,1.76,0,0,0,.52.14l0.68,0.06a3.67,3.67,0,0,1,.68.1,1.27,1.27,0,0,1,.52.26,0.65,0.65,0,0,1,.21.53,0.91,0.91,0,0,1-.4.83,2.47,2.47,0,0,1-1.31.26,3.22,3.22,0,0,1-.56,0,3.46,3.46,0,0,1-.44-0.1l-0.33-.11a0.62,0.62,0,0,0-.2-0.05,0.12,0.12,0,0,0-.09,0l0,0.08-0.09,0,0.31-.79Z" transform="translate(-5555.08 -6595.7)"/><path class="cls-3" d="M5677.1,6723.27a0.91,0.91,0,0,1-.16.55,1.13,1.13,0,0,1-.41.35,1.81,1.81,0,0,1-.56.18,3.83,3.83,0,0,1-1.21,0,1.8,1.8,0,0,1-.56-0.18,1.14,1.14,0,0,1-.41-0.35,0.93,0.93,0,0,1-.15-0.55v-2a0.34,0.34,0,0,0,0-.18,0.16,0.16,0,0,0-.13,0v-0.09h0.82V6721a0.16,0.16,0,0,0-.13,0,0.34,0.34,0,0,0,0,.18v1.94a0.65,0.65,0,0,0,.34.63,2.36,2.36,0,0,0,1.81,0,0.65,0.65,0,0,0,.34-0.63v-1.94a0.33,0.33,0,0,0,0-.18,0.16,0.16,0,0,0-.13,0v-0.09h0.82V6721a0.16,0.16,0,0,0-.13,0,0.33,0.33,0,0,0,0,.18v2Z" transform="translate(-5555.08 -6595.7)"/><path class="cls-3" d="M5680.63,6724.05a0.3,0.3,0,0,0,0,.18,0.2,0.2,0,0,0,.16,0v0.09h-0.88v-0.09a0.21,0.21,0,0,0,.16,0,0.3,0.3,0,0,0,0-.18v-2.83a0.3,0.3,0,0,0,0-.18,0.21,0.21,0,0,0-.16,0v-0.09h2.4a1,1,0,0,1,.75.26,1,1,0,0,1,.24.71,0.9,0.9,0,0,1-.25.69,1,1,0,0,1-.7.25l0.87,1.32a0.38,0.38,0,0,0,.09.11,0.16,0.16,0,0,0,.1,0v0.09h-0.85v-0.09h0.1a0.05,0.05,0,0,0,0-.05,0.17,0.17,0,0,0,0-.08l-0.06-.11-0.77-1.21h-1.24v1.24Zm1.67-1.68a0.54,0.54,0,0,0,.4-0.13,0.54,0.54,0,0,0,.12-0.38,0.59,0.59,0,0,0-.12-0.41,0.65,0.65,0,0,0-.48-0.13h-1.6v1.05h1.67Z" transform="translate(-5555.08 -6595.7)"/><path class="cls-3" d="M5685.38,6724.27a0.21,0.21,0,0,0,.17-0.05,0.82,0.82,0,0,0,.08-0.14l1.24-2.84a0.42,0.42,0,0,0,0-.13,0.09,0.09,0,0,0,0-.07,0.33,0.33,0,0,0-.15,0v-0.08H5688V6721l-0.12,0a0.08,0.08,0,0,0-.06.08,0.18,0.18,0,0,0,0,.08l0,0.08,1.34,2.86a0.36,0.36,0,0,0,.07.11,0.23,0.23,0,0,0,.17.05v0.09h-1v-0.09a0.46,0.46,0,0,0,.19,0,0.07,0.07,0,0,0,0-.07,0.28,0.28,0,0,0,0-.1l0-.08-0.32-.66h-1.91l-0.27.6-0.07.13a0.25,0.25,0,0,0,0,.1,0.07,0.07,0,0,0,0,.07,0.39,0.39,0,0,0,.17,0v0.09h-0.88v-0.09Zm1.22-1.37h1.53l-0.79-1.65Z" transform="translate(-5555.08 -6595.7)"/><path class="cls-3" d="M5691.54,6724.27a0.24,0.24,0,0,0,.17,0,0.26,0.26,0,0,0,0-.18v-2.83a0.26,0.26,0,0,0,0-.18,0.24,0.24,0,0,0-.17,0v-0.09h1.15V6721l-0.17,0a0.06,0.06,0,0,0,0,.05,0.43,0.43,0,0,0,.09.13l2.13,2.44v-2.43a0.26,0.26,0,0,0,0-.18,0.24,0.24,0,0,0-.17,0v-0.09h0.86V6721a0.24,0.24,0,0,0-.17,0,0.26,0.26,0,0,0,0,.18v2.83a0.25,0.25,0,0,0,0,.18,0.24,0.24,0,0,0,.17,0v0.09h-1.05v-0.09a0.57,0.57,0,0,0,.19,0,0.06,0.06,0,0,0,0-.05,0.1,0.1,0,0,0,0-.07l-0.07-.07-2.22-2.54v2.53a0.26,0.26,0,0,0,0,.18,0.24,0.24,0,0,0,.17,0v0.09h-0.86v-0.09Z" transform="translate(-5555.08 -6595.7)"/><path class="cls-3" d="M5700.75,6721.88a0.27,0.27,0,0,0,0-.06v-0.07a0.2,0.2,0,0,0-.1-0.12,1.56,1.56,0,0,0-.27-0.15,2.38,2.38,0,0,0-.38-0.13,1.83,1.83,0,0,0-.42-0.05,1.63,1.63,0,0,0-.6.11,1.4,1.4,0,0,0-.46.29,1.25,1.25,0,0,0-.29.43,1.37,1.37,0,0,0-.1.52,1.3,1.3,0,0,0,.1.51,1.14,1.14,0,0,0,.28.41,1.4,1.4,0,0,0,.44.27,1.53,1.53,0,0,0,.56.1,2.14,2.14,0,0,0,.55-0.06,1.77,1.77,0,0,0,.41-0.15,1,1,0,0,0,.25-0.18,0.26,0.26,0,0,0,.09-0.14,0.4,0.4,0,0,0,0-.16l0.08,0,0.55,0.72-0.09.06-0.09-.06h-0.06a0.4,0.4,0,0,0-.19.08l-0.32.17a2.57,2.57,0,0,1-.47.17,2.83,2.83,0,0,1-1.4,0,1.64,1.64,0,0,1-.61-0.33,1.6,1.6,0,0,1-.41-0.55,1.81,1.81,0,0,1-.15-0.75,1.76,1.76,0,0,1,.15-0.75,1.63,1.63,0,0,1,.42-0.56,1.91,1.91,0,0,1,.62-0.35,2.29,2.29,0,0,1,.75-0.12,3.28,3.28,0,0,1,.56,0,2.74,2.74,0,0,1,.46.13l0.26,0.1a0.4,0.4,0,0,0,.16,0,0.17,0.17,0,0,0,.13-0.09l0.09,0-0.39.81Z" transform="translate(-5555.08 -6595.7)"/><path class="cls-3" d="M5703.79,6721.23a0.3,0.3,0,0,0,0-.18,0.18,0.18,0,0,0-.14,0v-0.09h3.17a0.16,0.16,0,0,0,.19-0.19h0.1v0.82H5707a0.16,0.16,0,0,0-.19-0.19h-2.47v1H5706a0.16,0.16,0,0,0,.2-0.19h0.09V6723h-0.09a0.16,0.16,0,0,0-.2-0.19h-1.74v1.12h2.55a0.22,0.22,0,0,0,.16,0,0.22,0.22,0,0,0,0-.15h0.09v0.79h-0.09a0.17,0.17,0,0,0,0-.13,0.28,0.28,0,0,0-.16,0h-3.25v-0.09a0.18,0.18,0,0,0,.14,0,0.29,0.29,0,0,0,0-.18v-2.83Z" transform="translate(-5555.08 -6595.7)"/></g></svg>