<svg id="Calque_1" data-name="Calque 1" xmlns="http://www.w3.org/2000/svg" viewBox="0 0 223.76 223.76"><defs><style>.cls-1{fill:#131f6b;}.cls-2{opacity:0.66;}.cls-3{fill:#f4f2f2;}</style></defs><title>turgot</title><circle class="cls-1" cx="111.88" cy="111.88" r="111.88"/><g class="cls-2"><path class="cls-3" d="M5619.17,7283.17a10.78,10.78,0,0,1-.41,2.75,0.19,0.19,0,0,1-.36,0,5.05,5.05,0,0,0-.7-1.84,3.55,3.55,0,0,0-1.21-1.12,5.09,5.09,0,0,0-1.64-.57,10.88,10.88,0,0,0-1.91-.16h-5.5v26.56a4.43,4.43,0,0,0,1.16,3.1,4.82,4.82,0,0,0,2.89,1.55,0.17,0.17,0,0,1,.11.21,0.15,0.15,0,0,1-.16.16q-1.59-.14-3.2-0.23c-1.08-.06-2.16-0.09-3.25-0.09-0.79,0-1.57,0-2.34.07l-2.34.16a0.16,0.16,0,0,1-.16-0.16,0.17,0.17,0,0,1,.11-0.21,8.51,8.51,0,0,0,1.71-.5,2,2,0,0,0,.91-0.73,2.51,2.51,0,0,0,.37-1.16c0-.47.07-1.07,0.07-1.8v-26.88h-7.5a3.68,3.68,0,0,0-2.57,1,6.72,6.72,0,0,0-1.66,2.3,0.2,0.2,0,0,1-.2.11,0.14,0.14,0,0,1-.11-0.16,4.23,4.23,0,0,1-.09-0.82,6.84,6.84,0,0,1,.23-1.77c0.15-.58.32-1.17,0.5-1.77,0.09-.3.18-0.6,0.27-0.89a8.09,8.09,0,0,0,.23-0.84c0.06-.18.15-0.21,0.28-0.09a5.26,5.26,0,0,0,1.86.75,12.14,12.14,0,0,0,2.09.16h19.74a3.18,3.18,0,0,0,.8-0.11l0.8-.21,0.52-.09,0.61-.09c0.09,0,.14.06,0.14,0.18v0.36Q5619.21,7281.65,5619.17,7283.17Z" transform="translate(-5555.54 -7193.89)"/><path class="cls-3" d="M5644.27,7287a2.57,2.57,0,0,0-.64,1.71v12.19a11.38,11.38,0,0,1-.68,4,10.08,10.08,0,0,1-1.91,3.25,8.8,8.8,0,0,1-3,2.18,9.37,9.37,0,0,1-3.93.8,9.6,9.6,0,0,1-3.12-.52,10.93,10.93,0,0,1-2.84-1.48,12,12,0,0,1-2.34-2.23,8.91,8.91,0,0,1-1.53-2.77,3.52,3.52,0,0,1-.2-1c0-.44-0.07-0.94-0.09-1.5s0-1.18,0-1.84,0-1.34,0-2,0-1.56,0-2.32,0-1.45,0-2.09v-4.59a2.23,2.23,0,0,0-.7-1.86,5.38,5.38,0,0,0-1.93-.87,0.16,0.16,0,0,1-.11-0.2,0.16,0.16,0,0,1,.16-0.16c1.73,0.09,3.44.14,5.14,0.14h1.41c0.46,0,.92,0,1.41,0a0.18,0.18,0,0,1,.18.14,0.18,0.18,0,0,1-.09.23,6.35,6.35,0,0,0-1.48,1.07,2.08,2.08,0,0,0-.75,1.52l-0.09,13.92a7.13,7.13,0,0,0,.52,2.8,6,6,0,0,0,1.48,2.14,6.87,6.87,0,0,0,2.25,1.39,7.73,7.73,0,0,0,2.8.5,8,8,0,0,0,2.86-.5,6.74,6.74,0,0,0,2.28-1.41,6.33,6.33,0,0,0,1.48-2.18,7.52,7.52,0,0,0,.52-2.87l-0.09-13.74a2.47,2.47,0,0,0-.68-1.93,3.9,3.9,0,0,0-2-.84,0.17,0.17,0,0,1-.11-0.21,0.16,0.16,0,0,1,.16-0.16,23.44,23.44,0,0,0,2.5.14l0.75,0,0.75,0,1.59,0q0.82,0,1.64,0l0,0.36A2.74,2.74,0,0,0,5644.27,7287Z" transform="translate(-5555.54 -7193.89)"/><path class="cls-3" d="M5671.21,7310.88a6.91,6.91,0,0,1-1.66.21,5.8,5.8,0,0,1-2.46-.5,7.71,7.71,0,0,1-2-1.27,12.24,12.24,0,0,1-1.61-1.78q-0.75-1-1.43-2t-1.34-1.89a11.66,11.66,0,0,0-1.55-1.68,7.37,7.37,0,0,0-1.82-1.21,5.19,5.19,0,0,0-2.21-.46h-0.73a2.86,2.86,0,0,0-.68.09v6.46a3.35,3.35,0,0,0,.8,2.25,3.08,3.08,0,0,0,2.11,1.07v0.36l-2.07-.16c-0.68,0-1.37-.07-2.07-0.07s-1.37,0-2,.09-1.33.14-2,.23a0.15,0.15,0,0,1-.2-0.11,0.18,0.18,0,0,1,.07-0.25,4.07,4.07,0,0,0,1.59-1.36,3.35,3.35,0,0,0,.63-2v-18.15a2.61,2.61,0,0,0-.75-1.84,3.73,3.73,0,0,0-1.8-1.07,0.17,0.17,0,0,1-.11-0.2,0.16,0.16,0,0,1,.16-0.16h9a11.4,11.4,0,0,1,2.77.34,7.32,7.32,0,0,1,2.41,1.07,5.4,5.4,0,0,1,1.68,1.91,5.85,5.85,0,0,1,.64,2.82,7.77,7.77,0,0,1-1.21,4.14,16.51,16.51,0,0,1-2.71,3.37,14.1,14.1,0,0,1,1.09,1.39c0.4,0.56.82,1.15,1.27,1.75q1,1.36,2.12,2.8a23.18,23.18,0,0,0,2.34,2.59,10.77,10.77,0,0,0,2.55,1.82,4.54,4.54,0,0,0,2.68.48l0.14,0.36A8.22,8.22,0,0,1,5671.21,7310.88ZM5661,7290.93a7,7,0,0,0-1-2.14,5.72,5.72,0,0,0-1.68-1.57,4.34,4.34,0,0,0-2.32-.62,9.22,9.22,0,0,0-1.09.07,3.56,3.56,0,0,0-1,.3v11.33a13.34,13.34,0,0,0,1.5.18c0.48,0,1,0,1.5,0q2.55,0,3.53-1.39a6.59,6.59,0,0,0,1-3.84A8.46,8.46,0,0,0,5661,7290.93Z" transform="translate(-5555.54 -7193.89)"/><path class="cls-3" d="M5693.43,7299a1.37,1.37,0,0,0-.68,1.3v8.46a0.26,0.26,0,0,1-.09.14,8,8,0,0,1-3.73,1.57,28.43,28.43,0,0,1-4,.3,19.32,19.32,0,0,1-5.84-.84,13,13,0,0,1-4.6-2.5,11.09,11.09,0,0,1-3-4.21,15.31,15.31,0,0,1-1.07-6,12.57,12.57,0,0,1,1.07-5.32,11,11,0,0,1,2.93-3.89,12.62,12.62,0,0,1,4.37-2.37,17.41,17.41,0,0,1,5.32-.8,25,25,0,0,1,3.18.21q1.59,0.2,3.14.43l1.19,0.16,1.13,0.16a0.16,0.16,0,0,1,.18.18,14.71,14.71,0,0,1-.18,2.34q-0.18,1.11-.36,2.3c0,0.15-.05.32-0.07,0.5a4.14,4.14,0,0,1-.07.5,0.19,0.19,0,0,1-.36,0,6.87,6.87,0,0,0-1-2.5,6,6,0,0,0-1.71-1.73,7.29,7.29,0,0,0-2.27-1,10.6,10.6,0,0,0-2.62-.32,11.91,11.91,0,0,0-4.32.77,10.59,10.59,0,0,0-3.48,2.16,9.88,9.88,0,0,0-2.32,3.32,10.55,10.55,0,0,0-.84,4.25,12.55,12.55,0,0,0,.93,4.82,12.28,12.28,0,0,0,2.57,4,12.15,12.15,0,0,0,3.84,2.66,11.59,11.59,0,0,0,4.76,1,9,9,0,0,0,2.21-.29,4.57,4.57,0,0,0,1.93-1v-7.55a1.1,1.1,0,0,0-.48-1,5.29,5.29,0,0,0-1.07-.46l-0.52-.18a3,3,0,0,1-.62-0.27,0.17,0.17,0,0,1-.09-0.21,0.18,0.18,0,0,1,.18-0.11q4,0,8,.14l0,0.36A5.39,5.39,0,0,0,5693.43,7299Z" transform="translate(-5555.54 -7193.89)"/><path class="cls-3" d="M5721.92,7303.64a12.56,12.56,0,0,1-2.84,3.89,12.93,12.93,0,0,1-4.12,2.55,13.55,13.55,0,0,1-4.93.91,10.66,10.66,0,0,1-4.44-1,17,17,0,0,1-4.21-2.73,15.5,15.5,0,0,1-3.16-3.82,8.49,8.49,0,0,1-1.25-4.32,23.2,23.2,0,0,1,.61-5.71,9.74,9.74,0,0,1,5.57-6.78,24.37,24.37,0,0,1,5.46-1.75l0.59,0a11.32,11.32,0,0,1,5.41.84,13.23,13.23,0,0,1,4.37,3,14.11,14.11,0,0,1,2.93,4.57,14.62,14.62,0,0,1,1.07,5.55A11.24,11.24,0,0,1,5721.92,7303.64Zm-2.64-9.39a12.92,12.92,0,0,0-2-4,10.32,10.32,0,0,0-3.18-2.86,8.51,8.51,0,0,0-4.34-1.09,9.64,9.64,0,0,0-4.12.84,8.68,8.68,0,0,0-3,2.32,10.61,10.61,0,0,0-1.89,3.41,12.65,12.65,0,0,0-.66,4.12,15.24,15.24,0,0,0,.69,4.5,13,13,0,0,0,2,4,10.86,10.86,0,0,0,3.25,2.91,8.52,8.52,0,0,0,4.37,1.11,9,9,0,0,0,4.09-.89,8.9,8.9,0,0,0,3-2.37,10.19,10.19,0,0,0,1.82-3.43,13.71,13.71,0,0,0,.62-4.14A15.56,15.56,0,0,0,5719.28,7294.25Z" transform="translate(-5555.54 -7193.89)"/><path class="cls-3" d="M5743.5,7287.65a9.72,9.72,0,0,1-.32,2.18,0.18,0.18,0,0,1-.18.14,0.16,0.16,0,0,1-.14-0.14,2.88,2.88,0,0,0-1.43-2.11,5.7,5.7,0,0,0-2.52-.52h-4v19.52a3.21,3.21,0,0,0,.82,2.23,3.58,3.58,0,0,0,2.09,1.14,0.16,0.16,0,0,1,.11.2,0.15,0.15,0,0,1-.16.16l-2.32-.16c-0.75,0-1.53-.07-2.32-0.07-0.61,0-1.2,0-1.77,0s-1.17.08-1.77,0.13c-0.09,0-.15,0-0.16-0.13a0.18,0.18,0,0,1,.11-0.23,6.28,6.28,0,0,0,1.2-.39,1.66,1.66,0,0,0,.66-0.52,1.71,1.71,0,0,0,.27-0.84c0-.35,0-0.78,0-1.3v-19.75h-5.45a2.79,2.79,0,0,0-1.91.73,4.28,4.28,0,0,0-1.18,1.68,0.13,0.13,0,0,1-.18.09,0.18,0.18,0,0,1-.14-0.18l-0.09-.59a5.17,5.17,0,0,1,.18-1.39l0.36-1.3,0.18-.61c0.06-.2.12-0.4,0.18-0.62s0.15-.18.27-0.09a3.53,3.53,0,0,0,1.39.56,9.64,9.64,0,0,0,1.52.11h14.56a4.7,4.7,0,0,0,1.27-.23l0.32-.09,0.32-.09,0.23,0.18C5743.54,7286.12,5743.52,7286.86,5743.5,7287.65Z" transform="translate(-5555.54 -7193.89)"/><path class="cls-3" d="M5600.94,7332l-0.5,0-0.31,0h-0.33c-0.29,0-.58,0-0.88,0l-0.87.08a0.07,0.07,0,0,1-.08-0.06,0.07,0.07,0,0,1,0-.09l0.74-.36c-0.22-.59-0.44-1.18-0.67-1.75s-0.46-1.17-.67-1.78h-2.94l-0.28.73c-0.12.32-.23,0.66-0.35,1s-0.21.68-.3,1a2.87,2.87,0,0,0-.13.67,0.35,0.35,0,0,0,.25.37,3,3,0,0,0,.47.13V7332l-0.74-.07-0.76,0-0.76,0-0.76.07s-0.06,0-.07-0.06a0.07,0.07,0,0,1,0-.09,1.74,1.74,0,0,0,1.46-1.1v0q0.55-1.38,1.06-2.77c0.34-.92.68-1.85,1-2.79,0.23-.63.45-1.26,0.66-1.89s0.44-1.25.68-1.89a0.08,0.08,0,0,1,.15,0c0.06,0.18.13,0.35,0.2,0.52s0.14,0.34.2,0.52q0.78,2.12,1.62,4.26a42.54,42.54,0,0,0,1.92,4.19,1.43,1.43,0,0,0,.58.62,2,2,0,0,0,.81.23v0.15A2.4,2.4,0,0,1,5600.94,7332Zm-5-8.57c-0.21.67-.42,1.32-0.62,2s-0.41,1.3-.65,2h2.45Z" transform="translate(-5555.54 -7193.89)"/><path class="cls-3" d="M5607.35,7330.46a3.34,3.34,0,0,1-.89.94,4.4,4.4,0,0,1-1.19.61,3.91,3.91,0,0,1-1.24.22,2.77,2.77,0,0,1-.6-0.07,1.77,1.77,0,0,1-.57-0.22,1.28,1.28,0,0,1-.42-0.39,1,1,0,0,1-.16-0.6,2.17,2.17,0,0,1,0-.45l0.09-.44,0.09-.46s0-.06.08-0.06a0.06,0.06,0,0,1,.07.06v0.29a1.41,1.41,0,0,0,.17.7,1.85,1.85,0,0,0,.44.52,1.74,1.74,0,0,0,.61.32,2.59,2.59,0,0,0,.71.1,2.32,2.32,0,0,0,.7-0.11,2.15,2.15,0,0,0,.65-0.33,1.83,1.83,0,0,0,.49-0.53,1.32,1.32,0,0,0,.19-0.7,1.6,1.6,0,0,0-.17-0.71,3.92,3.92,0,0,0-.45-0.71,7.77,7.77,0,0,0-.65-0.72l-0.74-.72-0.79-.77a6.66,6.66,0,0,1-.7-0.79,4.47,4.47,0,0,1-.49-0.82,2.06,2.06,0,0,1-.19-0.86,1.76,1.76,0,0,1,.36-1.11,2.89,2.89,0,0,1,.89-0.76,4.49,4.49,0,0,1,1.16-.43,5.28,5.28,0,0,1,1.15-.14,4.78,4.78,0,0,1,1.39.19,0.09,0.09,0,0,1,.05.08c0,0.62-.12,1.26-0.23,1.91a0.07,0.07,0,0,1-.07.06,0.08,0.08,0,0,1-.08-0.06,2.54,2.54,0,0,0-.58-1.14,1.44,1.44,0,0,0-1.13-.47,1.64,1.64,0,0,0-1.2.46,1.66,1.66,0,0,0-.32,1.89,3.32,3.32,0,0,0,.42.62,5.65,5.65,0,0,0,.6.6l0.7,0.6c0.27,0.22.53,0.44,0.79,0.67a5.88,5.88,0,0,1,.69.74,3.81,3.81,0,0,1,.49.82,2.36,2.36,0,0,1,.19.95A2.19,2.19,0,0,1,5607.35,7330.46Z" transform="translate(-5555.54 -7193.89)"/><path class="cls-3" d="M5613.61,7330.46a3.36,3.36,0,0,1-.89.94,4.47,4.47,0,0,1-1.19.61,3.89,3.89,0,0,1-1.24.22,2.77,2.77,0,0,1-.6-0.07,1.79,1.79,0,0,1-.57-0.22,1.28,1.28,0,0,1-.41-0.39,1,1,0,0,1-.16-0.6,2.48,2.48,0,0,1,0-.45c0-.15.06-0.3,0.09-0.44l0.1-.46s0-.06.08-0.06a0.06,0.06,0,0,1,.08.06v0.29a1.4,1.4,0,0,0,.17.7,1.89,1.89,0,0,0,.43.52,1.78,1.78,0,0,0,.62.32,2.55,2.55,0,0,0,.71.1,2.31,2.31,0,0,0,.7-0.11,2.16,2.16,0,0,0,.65-0.33,1.84,1.84,0,0,0,.48-0.53,1.32,1.32,0,0,0,.19-0.7,1.61,1.61,0,0,0-.17-0.71,4,4,0,0,0-.45-0.71,9.19,9.19,0,0,0-.65-0.72l-0.74-.72-0.8-.77a6.86,6.86,0,0,1-.7-0.79,4.58,4.58,0,0,1-.49-0.82,2.05,2.05,0,0,1-.19-0.86,1.78,1.78,0,0,1,.36-1.11,2.91,2.91,0,0,1,.89-0.76,4.42,4.42,0,0,1,1.15-.43,5.32,5.32,0,0,1,1.16-.14,4.75,4.75,0,0,1,1.38.19,0.1,0.1,0,0,1,.06.08c-0.05.62-.13,1.26-0.23,1.91a0.08,0.08,0,0,1-.08.06,0.07,0.07,0,0,1-.07-0.06,2.56,2.56,0,0,0-.58-1.14,1.44,1.44,0,0,0-1.13-.47,1.66,1.66,0,0,0-1.21.46,1.59,1.59,0,0,0-.48,1.18,1.56,1.56,0,0,0,.16.71,3,3,0,0,0,.42.62,6.26,6.26,0,0,0,.6.6l0.7,0.6c0.27,0.22.53,0.44,0.79,0.67a6,6,0,0,1,.69.74,3.81,3.81,0,0,1,.49.82,2.37,2.37,0,0,1,.19.95A2.2,2.2,0,0,1,5613.61,7330.46Z" transform="translate(-5555.54 -7193.89)"/><path class="cls-3" d="M5620.83,7331l-0.11.84s0,0.06-.08.06l0,0a0.67,0.67,0,0,1-.25.06h-4.27l-1,0v-0.15a0.81,0.81,0,0,0,.47-0.13,0.78,0.78,0,0,0,.27-0.31,1.24,1.24,0,0,0,.13-0.43,3.75,3.75,0,0,0,0-.48v-7.89a0.54,0.54,0,0,0-.18-0.49,1.92,1.92,0,0,0-.39-0.19l-0.25-.09a1.61,1.61,0,0,1-.29-0.14,0.09,0.09,0,0,1,0-.09,0.06,0.06,0,0,1,.07,0h5.4l0.16-.07,0.16-.07c0.06,0,.09,0,0.09.08,0,0.33-.08.63-0.14,0.92s-0.11.57-.18,0.86a0.07,0.07,0,0,1-.08,0,0.07,0.07,0,0,1-.07-0.07,0.94,0.94,0,0,0-.45-0.87,2.28,2.28,0,0,0-1-.21h-1.5v3.89h2.2a0.76,0.76,0,0,0,.25-0.05l0.3-.11a2.08,2.08,0,0,1,.42-0.17c0.07,0,.1,0,0.1.08s0,0.32,0,.49,0,0.34-.07.49,0,0.31-.06.48,0,0.32-.06.47a0.08,0.08,0,0,1,0,.08,0.07,0.07,0,0,1-.08,0,0.52,0.52,0,0,1-.13-0.19c0-.06,0-0.13-0.06-0.21l-0.08-.23a0.59,0.59,0,0,0-.14-0.21,0.67,0.67,0,0,0-.35-0.14l-0.55-.08-0.58,0h-1v3.9a1.81,1.81,0,0,0,.81.64,2.6,2.6,0,0,0,1,.22,1.82,1.82,0,0,0,1.13-.35,1.7,1.7,0,0,0,.62-1l0.15,0C5620.91,7330.47,5620.86,7330.75,5620.83,7331Z" transform="translate(-5555.54 -7193.89)"/><path class="cls-3" d="M5630.46,7322.5a3.79,3.79,0,0,1-.13.91,0.07,0.07,0,0,1-.08.05,0.06,0.06,0,0,1-.06-0.05,1.21,1.21,0,0,0-.6-0.88,2.42,2.42,0,0,0-1.05-.21h-1.67v8.13a1.35,1.35,0,0,0,.34.93,1.51,1.51,0,0,0,.87.48,0.06,0.06,0,0,1,0,.08,0.06,0.06,0,0,1-.06.07l-1-.07c-0.32,0-.64,0-1,0l-0.74,0-0.74.06s-0.06,0-.07-0.06a0.07,0.07,0,0,1,0-.09,2.59,2.59,0,0,0,.5-0.16,0.62,0.62,0,0,0,.39-0.57c0-.15,0-0.33,0-0.54v-8.23h-2.28a1.15,1.15,0,0,0-.79.31,1.72,1.72,0,0,0-.49.7,0.05,0.05,0,0,1-.08,0,0.07,0.07,0,0,1-.06-0.07l0-.25a2.12,2.12,0,0,1,.08-0.58c0-.18.1-0.36,0.15-0.54l0.07-.26c0-.08.05-0.17,0.08-0.26s0.06-.08.11,0a1.48,1.48,0,0,0,.58.24,4.08,4.08,0,0,0,.64,0h6.06a2.09,2.09,0,0,0,.53-0.09l0.13,0,0.13,0,0.1,0.08C5630.48,7321.86,5630.47,7322.17,5630.46,7322.5Z" transform="translate(-5555.54 -7193.89)"/><path class="cls-3" d="M5649.58,7332H5648c-0.51,0-1,0-1.5,0-0.08,0-.1,0-0.08-0.09l0-.08a0.28,0.28,0,0,1,0-.08l0.12-.34a1,1,0,0,0,.06-0.32,21.13,21.13,0,0,0-.11-2.13c-0.07-.7-0.15-1.41-0.24-2.11-0.05-.43-0.1-0.81-0.14-1.15s-0.08-.73-0.11-1.17q-0.72,1.38-1.38,2.77t-1.33,2.81l-0.45.94-0.45.94a0.06,0.06,0,0,1-.06,0,0.11,0.11,0,0,1-.08,0,18.43,18.43,0,0,1-1.51-2.47c-0.43-.84-0.83-1.68-1.2-2.53l-0.54-1.2c-0.16-.36-0.35-0.76-0.56-1.18,0,0.32-.08.62-0.11,0.92s-0.08.59-.11,0.88c-0.1.79-.19,1.56-0.26,2.33s-0.11,1.55-.11,2.35a0.54,0.54,0,0,0,.17.46,1.77,1.77,0,0,0,.42.22l0.21,0.09,0.17,0.07a0.07,0.07,0,0,1,0,.09,0.07,0.07,0,0,1-.08.06h-0.52l-0.52,0-0.53,0h-0.91a2,2,0,0,0-.38,0s-0.06,0-.07-0.06a0.07,0.07,0,0,1,0-.09l0.23,0,0.36-.08a0.57,0.57,0,0,0,.28-0.26,1.73,1.73,0,0,0,.1-0.49c0-.29.1-0.66,0.15-1.11l0.19-1.53c0.07-.57.14-1.15,0.2-1.74s0.12-1.18.19-1.75,0.12-1.1.17-1.58,0.09-.79.12-1.11,0-.55.07-0.69a0.06,0.06,0,0,1,0-.06,0.08,0.08,0,0,1,.08,0,6.06,6.06,0,0,1,.65,1c0.28,0.49.58,1.05,0.9,1.7s0.66,1.33,1,2,0.67,1.39,1,2c0.22,0.44.39,0.82,0.53,1.14s0.27,0.58.38,0.8c0.2-.41.41-0.84,0.62-1.32l0.62-1.41q0.66-1.54,1.4-3.11a21,21,0,0,1,1.57-2.81,0.07,0.07,0,0,1,.07,0,0.06,0.06,0,0,1,0,.06c0,0.15,0,.37.07,0.64s0,0.59.08,0.94,0.09,1,.14,1.54,0.12,1.13.18,1.71,0.13,1.15.19,1.7,0.13,1.05.2,1.51,0.13,0.84.2,1.15a1.64,1.64,0,0,0,.19.58,1.12,1.12,0,0,0,.4.39,1.59,1.59,0,0,0,.46.12,1.1,1.1,0,0,0,.27,0,0.84,0.84,0,0,1,.3.09Z" transform="translate(-5555.54 -7193.89)"/><path class="cls-3" d="M5660.35,7332l-0.5,0-0.31,0h-0.33c-0.3,0-.58,0-0.87,0l-0.87.08a0.07,0.07,0,0,1-.08-0.06,0.07,0.07,0,0,1,0-.09l0.74-.36q-0.32-.89-0.67-1.75c-0.23-.58-0.46-1.17-0.67-1.78h-2.94l-0.27.73c-0.12.32-.24,0.66-0.35,1s-0.21.68-.3,1a2.87,2.87,0,0,0-.13.67,0.35,0.35,0,0,0,.25.37,2.86,2.86,0,0,0,.48.13V7332l-0.74-.07c-0.25,0-.5,0-0.76,0l-0.75,0-0.76.07s-0.06,0-.07-0.06a0.07,0.07,0,0,1,0-.09,1.74,1.74,0,0,0,1.46-1.1v0c0.37-.92.72-1.84,1.06-2.77s0.67-1.85,1-2.79q0.34-.95.66-1.89c0.22-.62.44-1.25,0.68-1.89a0.07,0.07,0,0,1,.08-0.05,0.07,0.07,0,0,1,.08.05c0.06,0.18.13,0.35,0.2,0.52s0.14,0.34.2,0.52q0.78,2.12,1.62,4.26a41.71,41.71,0,0,0,1.92,4.19,1.43,1.43,0,0,0,.58.62,2,2,0,0,0,.81.23v0.15A2.4,2.4,0,0,1,5660.35,7332Zm-5-8.57c-0.21.67-.42,1.32-0.62,2s-0.41,1.3-.65,2h2.45Z" transform="translate(-5555.54 -7193.89)"/><path class="cls-3" d="M5672.77,7321.81h0c-0.18,0-.36.11-0.56,0.19a0.41,0.41,0,0,0-.29.4l0,4.57v0.78c0,0.73,0,1.46,0,2.17s-0.07,1.43-.13,2.15a0.08,0.08,0,0,1,0,.07,0.06,0.06,0,0,1-.08,0c-0.61-.52-1.22-1.08-1.82-1.68s-1.2-1.21-1.79-1.84-1.17-1.26-1.73-1.9-1.11-1.26-1.63-1.87c-0.18-.19-0.33-0.37-0.48-0.54s-0.3-.35-0.47-0.54a8.9,8.9,0,0,0-.06,1c0,0.48,0,1,0,1.44s0,1,.05,1.44,0,1,.06,1.44,0,1,0,1.46a1.88,1.88,0,0,0,.06.52,0.94,0.94,0,0,0,.14.31,0.49,0.49,0,0,0,.21.16,1,1,0,0,0,.26.07l0.31,0.08a1.34,1.34,0,0,1,.36.2,0.1,0.1,0,0,1,0,.09,0.06,0.06,0,0,1-.07,0l-0.37,0-0.37,0-0.54-.06-0.54,0a5.3,5.3,0,0,0-.7.05l-0.72.1a0.06,0.06,0,0,1-.08,0,0.07,0.07,0,0,1,0-.1,2.11,2.11,0,0,1,.27-0.21l0.24-.14a1.37,1.37,0,0,0,.41-0.31,0.93,0.93,0,0,0,.18-0.63v-8.87l0.15-.3a0.18,0.18,0,0,1,.06-0.06,0,0,0,0,1,.06,0q2.06,2.14,4,4.22t3.92,4.29v-0.06q0-.87,0-1.72c0-.57,0-1.15,0-1.75s0-1.12,0-1.73,0-1.19,0-1.74a1.63,1.63,0,0,0-.07-0.52,0.69,0.69,0,0,0-.18-0.3,0.59,0.59,0,0,0-.25-0.14l-0.26-.06-0.28,0a0.44,0.44,0,0,1-.22-0.12,0.08,0.08,0,0,1,0-.1s0-.05.06,0a6.28,6.28,0,0,0,.82.05h2.24l0,0.15h0Z" transform="translate(-5555.54 -7193.89)"/><path class="cls-3" d="M5683.55,7332l-0.5,0-0.31,0h-0.33c-0.29,0-.58,0-0.87,0l-0.87.08a0.07,0.07,0,0,1-.08-0.06,0.07,0.07,0,0,1,0-.09l0.74-.36c-0.22-.59-0.44-1.18-0.67-1.75s-0.46-1.17-.68-1.78h-2.94l-0.27.73c-0.12.32-.24,0.66-0.35,1s-0.22.68-.3,1a2.84,2.84,0,0,0-.13.67,0.35,0.35,0,0,0,.25.37,2.89,2.89,0,0,0,.48.13V7332l-0.74-.07-0.76,0-0.76,0-0.76.07s-0.06,0-.07-0.06a0.07,0.07,0,0,1,0-.09,1.73,1.73,0,0,0,1.46-1.1v0c0.37-.92.73-1.84,1.06-2.77s0.68-1.85,1-2.79c0.23-.63.45-1.26,0.66-1.89s0.44-1.25.68-1.89a0.08,0.08,0,0,1,.08-0.05,0.07,0.07,0,0,1,.07.05q0.09,0.26.2,0.52c0.07,0.17.14,0.34,0.2,0.52q0.78,2.12,1.62,4.26a42.17,42.17,0,0,0,1.92,4.19,1.42,1.42,0,0,0,.58.62,1.94,1.94,0,0,0,.8.23v0.15A2.37,2.37,0,0,1,5683.55,7332Zm-5-8.57c-0.21.67-.42,1.32-0.61,2s-0.41,1.3-.66,2h2.45Z" transform="translate(-5555.54 -7193.89)"/><path class="cls-3" d="M5693.14,7327.25a0.57,0.57,0,0,0-.28.54v3.53a0.13,0.13,0,0,1,0,.06,3.33,3.33,0,0,1-1.56.65,11.85,11.85,0,0,1-1.69.12,8,8,0,0,1-2.44-.35,5.37,5.37,0,0,1-1.92-1A4.67,4.67,0,0,1,5684,7329a6.42,6.42,0,0,1-.44-2.49,5.26,5.26,0,0,1,.44-2.22,4.59,4.59,0,0,1,1.22-1.62,5.26,5.26,0,0,1,1.82-1,7.3,7.3,0,0,1,2.22-.33,10.62,10.62,0,0,1,1.33.09l1.31,0.18,0.49,0.07,0.47,0.07a0.07,0.07,0,0,1,.08.08,6,6,0,0,1-.08,1c-0.05.31-.1,0.63-0.15,1a1.69,1.69,0,0,0,0,.21,2.07,2.07,0,0,1,0,.21,0.07,0.07,0,0,1-.07.06,0.08,0.08,0,0,1-.08-0.06,2.93,2.93,0,0,0-.39-1,2.52,2.52,0,0,0-.71-0.72,3.13,3.13,0,0,0-1-.42,4.49,4.49,0,0,0-1.09-.13,5,5,0,0,0-1.8.32,4.48,4.48,0,0,0-1.45.9,4.1,4.1,0,0,0-1,1.39,4.39,4.39,0,0,0-.35,1.77,5.24,5.24,0,0,0,.39,2,5.08,5.08,0,0,0,2.67,2.76,4.83,4.83,0,0,0,2,.41,3.83,3.83,0,0,0,.92-0.12,1.93,1.93,0,0,0,.81-0.41v-3.15a0.45,0.45,0,0,0-.2-0.43,2.1,2.1,0,0,0-.45-0.19l-0.22-.08a1.37,1.37,0,0,1-.26-0.11,0.06,0.06,0,0,1,0-.08,0.07,0.07,0,0,1,.08,0c1.11,0,2.22,0,3.32.06l0,0.15A2.28,2.28,0,0,0,5693.14,7327.25Z" transform="translate(-5555.54 -7193.89)"/><path class="cls-3" d="M5700.65,7331l-0.12.84s0,0.06-.08.06l0,0a0.68,0.68,0,0,1-.25.06h-4.27l-1,0v-0.15a0.8,0.8,0,0,0,.46-0.13,0.83,0.83,0,0,0,.28-0.31,1.29,1.29,0,0,0,.12-0.43,3.42,3.42,0,0,0,0-.48v-7.89a0.55,0.55,0,0,0-.18-0.49,1.82,1.82,0,0,0-.39-0.19l-0.26-.09a1.69,1.69,0,0,1-.3-0.14,0.09,0.09,0,0,1,0-.09,0.05,0.05,0,0,1,.06,0h5.4l0.16-.07,0.16-.07c0.07,0,.1,0,0.1.08,0,0.33-.08.63-0.14,0.92s-0.11.57-.18,0.86a0.07,0.07,0,0,1-.08,0,0.07,0.07,0,0,1-.07-0.07,0.94,0.94,0,0,0-.45-0.87,2.29,2.29,0,0,0-1-.21h-1.49v3.89h2.19a0.76,0.76,0,0,0,.25-0.05l0.3-.11a2.07,2.07,0,0,1,.42-0.17c0.06,0,.1,0,0.1.08s0,0.32,0,.49,0,0.34-.07.49,0,0.31-.06.48,0,0.32-.06.47a0.07,0.07,0,0,1,0,.08,0.07,0.07,0,0,1-.08,0,0.46,0.46,0,0,1-.13-0.19l-0.06-.21-0.08-.23a0.61,0.61,0,0,0-.14-0.21,0.65,0.65,0,0,0-.35-0.14l-0.55-.08-0.58,0h-1v3.9a1.76,1.76,0,0,0,.8.64,2.63,2.63,0,0,0,1,.22,1.8,1.8,0,0,0,1.13-.35,1.69,1.69,0,0,0,.62-1l0.15,0C5700.73,7330.47,5700.68,7330.75,5700.65,7331Z" transform="translate(-5555.54 -7193.89)"/><path class="cls-3" d="M5715.28,7332h-1.53c-0.51,0-1,0-1.5,0-0.08,0-.1,0-0.08-0.09a0.2,0.2,0,0,0,0-.08,0.23,0.23,0,0,1,0-.08l0.11-.34a1,1,0,0,0,.06-0.32c0-.72,0-1.43-0.1-2.13s-0.15-1.41-.24-2.11c0-.43-0.1-0.81-0.14-1.15s-0.08-.73-0.11-1.17q-0.72,1.38-1.38,2.77t-1.32,2.81l-0.45.94-0.45.94a0.06,0.06,0,0,1-.05,0,0.11,0.11,0,0,1-.08,0,18.65,18.65,0,0,1-1.51-2.47c-0.42-.84-0.82-1.68-1.2-2.53l-0.55-1.2c-0.16-.36-0.34-0.76-0.56-1.19,0,0.32-.08.62-0.11,0.92s-0.08.59-.12,0.88c-0.1.79-.19,1.56-0.26,2.33s-0.11,1.55-.11,2.35a0.54,0.54,0,0,0,.17.46,1.8,1.8,0,0,0,.41.22l0.21,0.09,0.17,0.07a0.07,0.07,0,0,1,0,.09,0.07,0.07,0,0,1-.07.06h-0.52l-0.52,0-0.53,0h-0.91a1.9,1.9,0,0,0-.38,0s-0.06,0-.08-0.06a0.07,0.07,0,0,1,0-.09l0.23,0,0.36-.08a0.57,0.57,0,0,0,.28-0.26,2,2,0,0,0,.11-0.49q0.07-.44.15-1.11c0.06-.45.12-1,0.19-1.53s0.14-1.15.2-1.74,0.13-1.18.19-1.75,0.12-1.1.17-1.58,0.09-.79.11-1.11,0-.55.07-0.69a0.06,0.06,0,0,1,0-.06,0.08,0.08,0,0,1,.08,0,6.24,6.24,0,0,1,.64,1c0.28,0.49.58,1.05,0.9,1.7s0.65,1.33,1,2,0.67,1.39,1,2c0.21,0.44.39,0.82,0.53,1.14s0.26,0.58.38,0.8c0.2-.41.41-0.84,0.62-1.32l0.62-1.41q0.66-1.54,1.4-3.11a20.92,20.92,0,0,1,1.57-2.81,0.07,0.07,0,0,1,.07,0,0.05,0.05,0,0,1,0,.06c0,0.15,0,.37.07,0.64s0,0.59.08,0.94,0.08,1,.14,1.54,0.12,1.13.18,1.71,0.12,1.15.19,1.7,0.13,1.05.2,1.51,0.14,0.84.2,1.15a1.57,1.57,0,0,0,.19.58,1.1,1.1,0,0,0,.4.39,1.61,1.61,0,0,0,.46.12,1.1,1.1,0,0,0,.27,0,0.81,0.81,0,0,1,.29.09Z" transform="translate(-5555.54 -7193.89)"/><path class="cls-3" d="M5722.16,7331l-0.11.84a0.06,0.06,0,0,1-.07.06l0,0a0.66,0.66,0,0,1-.25.06h-4.28l-1,0v-0.15a0.8,0.8,0,0,0,.46-0.13,0.81,0.81,0,0,0,.27-0.31,1.49,1.49,0,0,0,.13-0.43,4.68,4.68,0,0,0,0-.48v-7.89a0.54,0.54,0,0,0-.18-0.49,1.93,1.93,0,0,0-.39-0.19l-0.26-.09a1.77,1.77,0,0,1-.29-0.14,0.1,0.1,0,0,1,0-.09,0.06,0.06,0,0,1,.07,0h5.4l0.16-.07,0.16-.07c0.06,0,.09,0,0.09.08,0,0.33-.08.63-0.14,0.92s-0.11.57-.18,0.86a0.07,0.07,0,0,1-.08,0,0.06,0.06,0,0,1-.07-0.07,1,1,0,0,0-.46-0.87,2.27,2.27,0,0,0-1-.21h-1.5v3.89h2.2a0.73,0.73,0,0,0,.25-0.05l0.3-.11a2,2,0,0,1,.42-0.17c0.06,0,.09,0,0.09.08s0,0.32,0,.49,0,0.34-.07.49a4.23,4.23,0,0,0-.05.48c0,0.16,0,.32-0.06.47a0.08,0.08,0,0,1,0,.08,0.07,0.07,0,0,1-.08,0,0.43,0.43,0,0,1-.13-0.19c0-.06,0-0.13-0.06-0.21s-0.06-.15-0.08-0.23a0.5,0.5,0,0,0-.13-0.21,0.68,0.68,0,0,0-.35-0.14l-0.55-.08-0.58,0h-1v3.9a1.78,1.78,0,0,0,.81.64,2.6,2.6,0,0,0,1,.22,1.82,1.82,0,0,0,1.13-.35,1.69,1.69,0,0,0,.62-1l0.15,0C5722.25,7330.47,5722.21,7330.75,5722.16,7331Z" transform="translate(-5555.54 -7193.89)"/><path class="cls-3" d="M5734.23,7321.81h0c-0.18,0-.36.11-0.56,0.19a0.41,0.41,0,0,0-.29.4l0,4.57v0.78c0,0.73,0,1.46,0,2.17s-0.07,1.43-.13,2.15a0.08,0.08,0,0,1,0,.07,0.07,0.07,0,0,1-.09,0c-0.61-.52-1.21-1.08-1.82-1.68s-1.2-1.21-1.79-1.84-1.17-1.26-1.74-1.9-1.11-1.26-1.63-1.87c-0.18-.19-0.34-0.37-0.48-0.54s-0.3-.35-0.47-0.54a8.67,8.67,0,0,0-.06,1q0,0.72,0,1.44c0,0.48,0,1,.06,1.44s0,1,.06,1.44,0,1,0,1.46a1.88,1.88,0,0,0,.06.52,0.94,0.94,0,0,0,.14.31,0.46,0.46,0,0,0,.21.16,1.08,1.08,0,0,0,.26.07l0.3,0.08a1.3,1.3,0,0,1,.36.2,0.09,0.09,0,0,1,0,.09,0.06,0.06,0,0,1-.07,0l-0.37,0-0.37,0-0.54-.06-0.54,0a5.34,5.34,0,0,0-.7.05l-0.72.1a0.06,0.06,0,0,1-.08,0,0.08,0.08,0,0,1,0-.1,2.11,2.11,0,0,1,.27-0.21l0.24-.14a1.35,1.35,0,0,0,.41-0.31,0.92,0.92,0,0,0,.18-0.63v-8.87l0.15-.3a0.13,0.13,0,0,1,.05-0.06,0,0,0,0,1,.06,0q2.06,2.14,4,4.22t3.93,4.29v-0.06c0-.58,0-1.15,0-1.72s0-1.15,0-1.75,0-1.12,0-1.73,0-1.19,0-1.73a1.58,1.58,0,0,0-.07-0.52,0.69,0.69,0,0,0-.18-0.3,0.59,0.59,0,0,0-.24-0.14l-0.27-.06-0.28,0a0.46,0.46,0,0,1-.22-0.12,0.08,0.08,0,0,1,0-.1s0-.05.06,0a6.34,6.34,0,0,0,.82.05h1.3a4.87,4.87,0,0,1,.52,0h0.42l0,0.15h0Z" transform="translate(-5555.54 -7193.89)"/><path class="cls-3" d="M5743.76,7322.5a4.24,4.24,0,0,1-.13.91,0.07,0.07,0,0,1-.07.05,0.06,0.06,0,0,1-.06-0.05,1.2,1.2,0,0,0-.6-0.88,2.38,2.38,0,0,0-1-.21h-1.67v8.13a1.34,1.34,0,0,0,.34.93,1.5,1.5,0,0,0,.87.48,0.07,0.07,0,0,1,0,.08,0.07,0.07,0,0,1-.07.07l-1-.07c-0.32,0-.64,0-1,0l-0.74,0-0.74.06s-0.06,0-.07-0.06a0.08,0.08,0,0,1,0-.09,2.53,2.53,0,0,0,.5-0.16,0.69,0.69,0,0,0,.28-0.22,0.75,0.75,0,0,0,.12-0.35c0-.15,0-0.33,0-0.54v-8.23h-2.27a1.14,1.14,0,0,0-.8.31,1.73,1.73,0,0,0-.49.7,0.05,0.05,0,0,1-.08,0,0.07,0.07,0,0,1-.06-0.07l0-.25a2.12,2.12,0,0,1,.08-0.58l0.15-.54,0.08-.26c0-.08,0-0.17.08-0.26s0.06-.08.11,0a1.53,1.53,0,0,0,.58.24,4.07,4.07,0,0,0,.64,0h6.07a2.06,2.06,0,0,0,.53-0.09l0.13,0,0.13,0,0.09,0.08C5743.78,7321.86,5743.77,7322.17,5743.76,7322.5Z" transform="translate(-5555.54 -7193.89)"/></g></svg>